<svg width="100" height="23" viewBox="0 0 100 23" fill="none" xmlns="http://www.w3.org/2000/svg">
<path d="M8.21988 17.5432C4.3741 17.5432 0.52832 14.612 0.52832 9.14816C0.52832 3.66089 4.53825 0.753105 8.24333 0.753105H9.57998C13.3085 0.753105 16.0287 3.49674 16.3804 6.94387H13.2382C13.0037 5.16168 11.5029 3.54364 9.62688 3.54364H8.26678C6.08594 3.54364 3.83475 5.58378 3.83475 9.14816C3.83475 12.6891 5.9687 14.7527 8.19643 14.7527H9.55653C11.5029 14.7527 12.9802 13.2284 13.2382 11.3525H16.3804C16.0756 14.9637 12.8161 17.5432 9.53308 17.5432H8.21988Z" fill="white"/>
<path d="M23.0223 17.5432C19.7627 17.5432 17.3005 14.9637 17.3005 11.4463C17.3005 7.90532 19.7627 5.34928 22.9988 5.34928H24.0072C27.2667 5.34928 29.7055 7.90532 29.7055 11.4463C29.7055 14.9872 27.2667 17.5432 24.0306 17.5432H23.0223ZM23.9368 14.9403C25.4611 14.9403 26.657 13.416 26.657 11.4463C26.657 9.47646 25.4611 7.95222 23.9368 7.95222H23.0926C21.5449 7.95222 20.349 9.42956 20.349 11.4463C20.349 13.4629 21.5449 14.9403 23.0926 14.9403H23.9368Z" fill="white"/>
<path d="M34.9333 22.1394C31.838 22.1394 30.1027 20.7793 30.1027 18.8095C30.1027 17.9653 30.4779 17.2149 31.0641 16.6521C31.3455 16.3707 31.3455 16.1831 31.0641 15.8783C30.7593 15.5265 30.5248 15.081 30.5248 14.5416C30.5248 13.6974 31.1579 12.947 32.1663 12.5953C32.518 12.4546 32.5649 12.267 32.2835 11.9856C31.5566 11.3056 31.2048 10.4145 31.2048 9.45301C31.2048 6.99077 33.2684 5.34928 35.8244 5.34928H36.6921C37.7239 5.34928 38.5212 5.53688 39.8813 5.53688H42.6953V7.60047H41.4524C40.96 7.60047 40.7958 7.85842 41.0069 8.28052C41.2414 8.70262 41.3586 9.14816 41.3586 9.59371C41.3586 11.8684 39.2247 13.5802 36.739 13.5802H34.3471C33.8312 13.5802 33.4325 13.8381 33.4325 14.2837C33.4325 14.7058 33.8077 14.9872 34.4409 14.9872H38.5212C41.0538 14.9872 42.7187 16.3942 42.7187 18.4109C42.7187 20.6621 40.6082 22.1394 37.8177 22.1394H34.9333ZM38.0991 19.771C39.1309 19.771 39.764 19.2785 39.764 18.4812C39.764 17.7777 39.1778 17.2853 38.146 17.2853H34.8161C33.3622 17.2853 33.0573 17.9888 33.0573 18.5281C33.0573 19.2316 33.6201 19.771 34.8161 19.771H38.0991ZM36.6686 11.2352C37.7708 11.2352 38.4508 10.391 38.4508 9.45301C38.4508 8.53847 37.7708 7.69427 36.6686 7.69427H35.8713C35.0271 7.69427 34.0891 8.35087 34.0891 9.45301C34.0891 10.5786 35.0037 11.2352 35.8479 11.2352H36.6686Z" fill="white"/>
<path d="M50.9362 5.34928C54.0082 5.34928 56.4235 7.97567 56.4235 11.4463C56.4235 14.9168 54.0082 17.5432 50.9362 17.5432H50.3031C49.4823 17.5432 48.5678 17.1915 47.8878 16.699C47.3484 16.3942 46.9967 16.5583 46.9967 17.0508V22.1394H43.9716V5.53688H46.9967V5.95898C46.9967 6.33418 47.3719 6.49833 47.8878 6.17003C48.6147 5.65413 49.5292 5.34928 50.3265 5.34928H50.9362ZM49.6465 7.95222C48.0754 7.95222 46.7856 9.40611 46.7856 11.4463C46.7856 13.4864 48.0754 14.9403 49.6465 14.9403H50.5141C52.0149 14.9403 53.3516 13.4864 53.3516 11.4463C53.3516 9.40611 52.0149 7.95222 50.5141 7.95222H49.6465Z" fill="white"/>
<path d="M57.9527 17.3556V5.53688H60.9777V17.3556H57.9527ZM57.8589 0.940703H61.095V3.66089H57.8589V0.940703Z" fill="white"/>
<path d="M66.3293 12.1028C65.8368 12.1028 65.6023 12.4077 65.743 12.8298C66.0244 14.0492 66.9155 15.0341 68.2053 15.0341H69.1667C70.3157 15.0341 71.2537 14.2837 71.4179 13.3691H74.3022C74.0443 15.8314 71.8165 17.5432 69.1198 17.5432H68.1818C64.9457 17.5432 62.5304 14.9872 62.5304 11.4228C62.5304 7.57702 65.4382 5.34928 68.1349 5.34928H69.1198C72.1683 5.34928 74.4195 7.88187 74.4195 11.0711C74.4195 11.6104 74.3726 11.9856 74.3726 12.1028H66.3293ZM66.0244 9.19506C65.7665 9.61716 65.9775 9.96891 66.47 9.96891H70.7144C71.1834 9.96891 71.4413 9.64061 71.2537 9.21851C70.9254 8.32742 70.0812 7.69427 69.1198 7.69427H68.1818C67.3142 7.69427 66.47 8.18672 66.0244 9.19506Z" fill="white"/>
<path d="M81.1117 17.5432C77.5473 17.5432 75.3664 14.823 75.3664 11.4463C75.3664 8.04602 77.5942 5.34928 81.1586 5.34928H82.0028C84.8402 5.34928 87.0445 7.27217 87.2321 10.2034H84.254C84.1133 8.96057 83.2691 7.95222 81.9793 7.95222H81.1586C79.3764 7.95222 78.4149 9.57026 78.4149 11.4463C78.4149 13.3457 79.3764 14.9403 81.1117 14.9403H81.9324C83.2222 14.9403 84.0195 13.9788 84.2774 12.736H87.279C86.9272 15.4562 84.934 17.5432 81.9324 17.5432H81.1117Z" fill="white"/>
<path d="M91.9098 12.1028C91.4174 12.1028 91.1828 12.4077 91.3235 12.8298C91.6049 14.0492 92.496 15.0341 93.7858 15.0341H94.7472C95.8963 15.0341 96.8343 14.2837 96.9984 13.3691H99.8828C99.6248 15.8314 97.3971 17.5432 94.7003 17.5432H93.7623C90.5262 17.5432 88.1109 14.9872 88.1109 11.4228C88.1109 7.57702 91.0187 5.34928 93.7154 5.34928H94.7003C97.7488 5.34928 100 7.88187 100 11.0711C100 11.6104 99.9531 11.9856 99.9531 12.1028H91.9098ZM91.6049 9.19506C91.347 9.61716 91.558 9.96891 92.0505 9.96891H96.2949C96.7639 9.96891 97.0219 9.64061 96.8343 9.21851C96.506 8.32742 95.6618 7.69427 94.7003 7.69427H93.7623C92.8947 7.69427 92.0505 8.18672 91.6049 9.19506Z" fill="white"/>
</svg>
