<svg width="18" height="18" viewBox="0 0 18 18" fill="none" xmlns="http://www.w3.org/2000/svg">
<g clip-path="url(#clip0_1_157)">
<mask id="mask0_1_157" style="mask-type:luminance" maskUnits="userSpaceOnUse" x="0" y="0" width="18" height="18">
<path d="M18 0H0V18H18V0Z" fill="white"/>
</mask>
<g mask="url(#mask0_1_157)">
<path d="M2.71875 13.1023C4.44337 15.7437 7.72805 17.1051 10.9408 16.2442C14.1535 15.3834 16.3174 12.562 16.4903 9.41226C16.2278 9.55544 15.9542 9.69284 15.6766 9.82409C14.1495 10.5461 12.0658 11.284 9.77608 11.8975C7.48627 12.5111 5.31287 12.9139 3.62933 13.0522C3.3233 13.0773 3.01769 13.0951 2.71875 13.1023Z" fill="white"/>
<path d="M7.05886 1.75534C10.2918 0.889072 13.5959 2.27286 15.3118 4.94546C15.7106 4.95084 16.0728 4.98283 16.3762 5.05125C16.5815 5.09756 16.8013 5.16943 16.9951 5.2907C17.1932 5.41467 17.4127 5.62312 17.4992 5.94596C17.6038 6.33624 17.4586 6.67386 17.3174 6.88808C17.174 7.10574 16.9725 7.29637 16.7641 7.46074C16.3423 7.79339 15.742 8.13419 15.0358 8.46802C13.6123 9.14114 11.6185 9.85109 9.38827 10.4487C7.15793 11.0463 5.07634 11.4283 3.50694 11.5572C2.72845 11.6212 2.03823 11.6262 1.50658 11.549C1.24388 11.5108 0.974085 11.4465 0.741066 11.3297C0.511726 11.2147 0.217129 10.995 0.112555 10.6047C0.0260499 10.2819 0.111888 9.99164 0.221473 9.78517C0.328673 9.58327 0.483082 9.41114 0.637787 9.26834C0.86631 9.05737 1.16399 8.84857 1.50661 8.64457C1.65636 5.47205 3.8259 2.62161 7.05886 1.75534Z" fill="white"/>
</g>
</g>
<defs>
<clipPath id="clip0_1_157">
<rect width="18" height="18" fill="white"/>
</clipPath>
</defs>
</svg>
