<svg width="19" height="18" viewBox="0 0 19 18" fill="none" xmlns="http://www.w3.org/2000/svg">
<path fill-rule="evenodd" clip-rule="evenodd" d="M7.50334 2.37319C8.6749 1.20161 10.5744 1.20161 11.746 2.37319L11.8244 2.45159C12.0915 2.71871 12.4538 2.86878 12.8316 2.86878C14.4466 2.86878 15.7559 4.17806 15.7559 5.79313C15.7559 6.1709 15.906 6.53318 16.1731 6.8003L16.2515 6.87871C17.4231 8.05028 17.4231 9.9498 16.2515 11.1214L16.1731 11.1998C15.906 11.4669 15.7559 11.8292 15.7559 12.2069C15.7559 13.822 14.4466 15.1312 12.8316 15.1312C12.4538 15.1312 12.0915 15.2813 11.8244 15.5485L11.746 15.6269C10.5744 16.7984 8.6749 16.7984 7.50334 15.6269L7.42494 15.5485C7.15782 15.2813 6.79553 15.1312 6.41777 15.1312C4.80269 15.1312 3.49341 13.822 3.49341 12.2069C3.49341 11.8292 3.34335 11.4669 3.07623 11.1998L2.99782 11.1214C1.82625 9.9498 1.82625 8.05028 2.99782 6.87871L3.07623 6.8003C3.34335 6.53318 3.49341 6.1709 3.49341 5.79313C3.49341 4.17806 4.80269 2.86878 6.41777 2.86878C6.79553 2.86878 7.15782 2.71871 7.42494 2.45159L7.50334 2.37319ZM12.114 7.74263C12.3516 7.4033 12.2691 6.93566 11.9298 6.69812C11.5904 6.46058 11.1228 6.54311 10.8852 6.88245L8.73948 9.9477L7.86852 9.18563C7.55679 8.91285 7.08297 8.94443 6.8102 9.2562C6.53744 9.5679 6.56903 10.0418 6.88076 10.3145L8.38075 11.627C8.54103 11.7673 8.75343 11.8328 8.96485 11.8071C9.17635 11.7815 9.36693 11.6672 9.48903 11.4926L12.114 7.74263Z" fill="white"/>
</svg>
