<svg width="19" height="18" viewBox="0 0 19 18" fill="none" xmlns="http://www.w3.org/2000/svg">
<path d="M5.125 10.5C5.125 7.03614 7.73412 4.18167 11.0942 3.79467C10.1437 2.8405 8.82828 2.25 7.375 2.25C4.47551 2.25 2.125 4.60051 2.125 7.5C2.125 9.69495 3.47195 11.5752 5.38436 12.3595C5.21545 11.7688 5.125 11.1449 5.125 10.5Z" fill="white"/>
<path fill-rule="evenodd" clip-rule="evenodd" d="M11.875 15.75C14.7745 15.75 17.125 13.3995 17.125 10.5C17.125 7.6005 14.7745 5.25 11.875 5.25C8.9755 5.25 6.625 7.6005 6.625 10.5C6.625 13.3995 8.9755 15.75 11.875 15.75ZM12.625 9C12.625 8.58578 12.2892 8.25 11.875 8.25C11.4608 8.25 11.125 8.58578 11.125 9V9.75H10.375C9.96078 9.75 9.625 10.0858 9.625 10.5C9.625 10.9142 9.96078 11.25 10.375 11.25H11.125V12C11.125 12.4142 11.4608 12.75 11.875 12.75C12.2892 12.75 12.625 12.4142 12.625 12V11.25H13.375C13.7892 11.25 14.125 10.9142 14.125 10.5C14.125 10.0858 13.7892 9.75 13.375 9.75H12.625V9Z" fill="white"/>
</svg>
