<svg width="19" height="18" viewBox="0 0 19 18" fill="none" xmlns="http://www.w3.org/2000/svg">
<path fill-rule="evenodd" clip-rule="evenodd" d="M16.625 5.82294C16.625 6.68935 15.968 7.40231 15.125 7.49075V12.4092C15.6628 12.7407 16.0839 13.2549 16.2934 13.8834C16.5995 14.8017 15.9159 15.75 14.948 15.75H3.302C2.33404 15.75 1.65053 14.8017 1.95663 13.8834C2.16615 13.2549 2.58729 12.7407 3.125 12.4092V7.49075C2.28201 7.40231 1.625 6.68935 1.625 5.82294C1.625 5.18772 1.98389 4.60702 2.55205 4.32294L7.78332 1.70729C8.62797 1.28499 9.62203 1.28499 10.4667 1.70729L15.6979 4.32294C16.2661 4.60702 16.625 5.18772 16.625 5.82294ZM12.125 7.49997H13.625V12H12.125V7.49997ZM6.125 12H4.625V7.49997H6.125V12ZM7.625 12V7.49997H10.625V12H7.625Z" fill="white"/>
</svg>
