<svg width="19" height="18" viewBox="0 0 19 18" fill="none" xmlns="http://www.w3.org/2000/svg">
<path d="M9.375 2.25C11.6735 2.25 13.6424 2.84371 15.0505 4.01768C16.4751 5.20532 17.25 6.9251 17.25 9C17.25 11.0749 16.4751 12.7947 15.0505 13.9823C13.6424 15.1563 11.6735 15.75 9.375 15.75C8.16052 15.75 6.79308 15.6379 5.56181 15.1034C5.35248 15.2204 5.06425 15.3626 4.72197 15.4813C4.00856 15.7288 2.96927 15.9035 1.92894 15.4108C1.72481 15.314 1.57513 15.1305 1.52148 14.9111C1.46782 14.6917 1.5159 14.4598 1.65235 14.2799C2.16865 13.5989 2.33136 13.0708 2.37641 12.733C2.41978 12.408 2.35907 12.2218 2.35203 12.2016L2.35252 12.2028C2.35252 12.2028 2.35208 12.2017 2.35142 12.1999L2.35203 12.2016C2.35203 12.2016 2.35124 12.1996 2.35057 12.1981L2.34481 12.1846L2.33523 12.1618C2.27779 12.0241 2.07456 11.5268 1.88445 10.9335C1.702 10.364 1.50001 9.61238 1.50001 9C1.50001 6.9251 2.27488 5.20532 3.69943 4.01768C5.10761 2.84371 7.07649 2.25 9.375 2.25Z" fill="white"/>
</svg>
