<svg width="19" height="18" viewBox="0 0 19 18" fill="none" xmlns="http://www.w3.org/2000/svg">
<path fill-rule="evenodd" clip-rule="evenodd" d="M9.875 1.5C7.80393 1.5 6.125 3.17893 6.125 5.25V6.84452C4.83108 7.17755 3.875 8.35215 3.875 9.75V13.5C3.875 15.1568 5.21814 16.5 6.875 16.5H12.875C14.5318 16.5 15.875 15.1568 15.875 13.5V9.75C15.875 8.35215 14.9189 7.17755 13.625 6.84452V5.25C13.625 3.17893 11.946 1.5 9.875 1.5ZM12.125 6.75V5.25C12.125 4.00736 11.1177 3 9.875 3C8.63232 3 7.625 4.00736 7.625 5.25V6.75H12.125ZM9.875 9.75C10.2892 9.75 10.625 10.0858 10.625 10.5V12.75C10.625 13.1642 10.2892 13.5 9.875 13.5C9.46078 13.5 9.125 13.1642 9.125 12.75V10.5C9.125 10.0858 9.46078 9.75 9.875 9.75Z" fill="white"/>
</svg>
