<svg width="27" height="26" viewBox="0 0 27 26" fill="none" xmlns="http://www.w3.org/2000/svg">
<path d="M14.814 0.156357C15.4464 0.156357 15.9593 0.669219 15.9593 1.30166V4.32745C15.9521 4.27571 15.9593 4.38116 15.9593 4.32745C15.8624 4.78055 15.4623 5.29976 14.5955 5.29985V5.31058H11.8083C11.2549 5.31058 10.8064 5.75909 10.8064 6.31247V9.34429C10.7645 9.8182 10.4608 10.4635 9.44667 10.4635H6.65544C6.10216 10.4635 5.65305 10.9121 5.65288 11.4654V14.6151C5.65305 15.1684 6.10216 15.617 6.65544 15.617H9.80387L9.90841 15.6251C10.4174 15.7074 10.717 16.3774 10.8064 16.6906V19.768C10.8064 20.3214 11.2549 20.7699 11.8083 20.7699H14.9574C15.5108 20.7699 15.9593 20.3214 15.9593 19.768V16.6189C15.9593 16.5818 15.9572 16.5451 15.9533 16.509C16.1201 16.1535 16.5035 15.6593 16.9853 15.6592V15.6163H20.1103C20.6636 15.6163 21.1121 15.1677 21.1122 14.6144V11.4654C21.1122 10.912 20.6637 10.4628 20.1103 10.4628H16.9612C16.4078 10.4628 15.9593 10.912 15.9593 11.4654V14.6144C15.9593 14.6395 15.9609 14.6643 15.9627 14.6888C15.8869 15.0462 15.627 15.4629 15.0465 15.621C15.0172 15.6184 14.9874 15.617 14.9574 15.617H11.8083C11.7619 15.617 11.7163 15.6203 11.6716 15.6264C11.0479 15.4543 10.8406 14.9554 10.8064 14.5695V11.4654L10.8533 11.326C10.9793 10.9995 11.263 10.5356 11.7038 10.4708L11.8083 10.4635H14.9574C15.5108 10.4635 15.9593 10.015 15.9593 9.46157V6.31247C15.9593 6.27877 15.9579 6.24546 15.9546 6.21262C16.0735 5.8724 16.3589 5.36183 16.8118 5.30589C16.8389 5.3081 16.8665 5.31058 16.8942 5.31058H19.9937C20.614 5.32454 21.1128 5.83092 21.1129 6.45455V9.31748C21.1129 9.94985 21.6252 10.4627 22.2575 10.4628H25.1204C25.7529 10.4628 26.2657 10.9756 26.2657 11.6081V14.4704C26.2657 15.1028 25.7529 15.6157 25.1204 15.6157H22.2575C21.6252 15.6158 21.1129 16.1286 21.1129 16.761V19.6239C21.1128 20.2563 20.5999 20.7692 19.9676 20.7692H17.1046C16.4722 20.7692 15.9594 21.2815 15.9593 21.9139V24.7768C15.9593 25.4092 15.4464 25.9221 14.814 25.9221H11.9517C11.3193 25.9221 10.8064 25.4092 10.8064 24.7768V21.9139C10.8063 21.2815 10.2935 20.7692 9.66112 20.7692H6.79819C6.16583 20.7692 5.65294 20.2563 5.65288 19.6239V16.761C5.65288 16.1286 5.14058 15.6158 4.50824 15.6157H1.64531C1.01286 15.6157 0.5 15.1028 0.5 14.4704V11.6081C0.5 10.9756 1.01286 10.4628 1.64531 10.4628H4.50824C5.14058 10.4627 5.65288 9.94985 5.65288 9.31748V6.45455C5.65294 5.82218 6.16582 5.30929 6.79819 5.30924H9.66112C10.2935 5.30924 10.8063 4.79693 10.8064 4.1646V1.30166C10.8064 0.669219 11.3193 0.156357 11.9517 0.156357H14.814Z" fill="url(#paint0_linear_1_148)"/>
<defs>
<linearGradient id="paint0_linear_1_148" x1="13.3829" y1="0.156357" x2="13.3829" y2="25.9221" gradientUnits="userSpaceOnUse">
<stop stop-color="white"/>
<stop offset="1" stop-color="#5D34D6"/>
</linearGradient>
</defs>
</svg>
