<svg width="25" height="24" viewBox="0 0 25 24" fill="none" xmlns="http://www.w3.org/2000/svg">
<path fill-rule="evenodd" clip-rule="evenodd" d="M8.50719 2.82925C8.59382 1.80461 9.45295 1 10.5 1H14.5C15.5471 1 16.4062 1.80461 16.4928 2.82925C20.0274 4.37028 22.5 7.89524 22.5 12C22.5 17.5228 18.0228 22 12.5 22C6.97715 22 2.5 17.5228 2.5 12C2.5 7.89524 4.97264 4.37028 8.50719 2.82925ZM9.61969 4.5339C8.88608 4.8171 8.2048 5.20528 7.59421 5.67998L8.96446 7.05019C9.35499 7.44071 9.355 8.07387 8.96448 8.4644C8.57396 8.85493 7.94079 8.85494 7.55026 8.46442L6.18008 7.09428C5.31987 8.20104 4.74404 9.53958 4.56191 11H6.5C7.05228 11 7.5 11.4477 7.5 12C7.5 12.5523 7.05228 13 6.5 13H4.56189C4.74404 14.4607 5.31998 15.7991 6.18014 16.9056L7.55024 15.5355C7.94076 15.145 8.57393 15.145 8.96446 15.5355C9.35499 15.926 9.355 16.5592 8.96448 16.9497L7.59435 18.3199C8.70087 19.18 10.0393 19.756 11.5 19.9381V18C11.5 17.4477 11.9477 17 12.5 17C13.0523 17 13.5 17.4477 13.5 18V19.9381C14.9607 19.756 16.2991 19.18 17.4057 18.3199L16.0355 16.9497C15.645 16.5592 15.645 15.926 16.0355 15.5355C16.4261 15.145 17.0592 15.145 17.4498 15.5355L18.8199 16.9056C19.68 15.7991 20.256 14.4607 20.4381 13H18.5C17.9477 13 17.5 12.5523 17.5 12C17.5 11.4477 17.9477 11 18.5 11H20.4381C20.256 9.53958 19.6801 8.20103 18.8199 7.09428L17.4497 8.46442C17.0592 8.85494 16.426 8.85493 16.0355 8.4644C15.645 8.07387 15.645 7.44071 16.0355 7.05019L17.4058 5.67998C16.7952 5.20528 16.1139 4.8171 15.3803 4.5339L13.2071 6.70711C12.8166 7.09763 12.1834 7.09763 11.7929 6.70711L9.61969 4.5339ZM9.5 12C9.5 10.3431 10.8431 9 12.5 9C14.1569 9 15.5 10.3431 15.5 12C15.5 13.6569 14.1569 15 12.5 15C10.8431 15 9.5 13.6569 9.5 12Z" fill="#5D34D6"/>
</svg>
