<svg width="19" height="18" viewBox="0 0 19 18" fill="none" xmlns="http://www.w3.org/2000/svg">
<g clip-path="url(#clip0_1_2095)">
<mask id="mask0_1_2095" style="mask-type:luminance" maskUnits="userSpaceOnUse" x="0" y="0" width="19" height="18">
<path d="M18.75 0H0.75V18H18.75V0Z" fill="white"/>
</mask>
<g mask="url(#mask0_1_2095)">
<path d="M3.46875 13.1022C5.19337 15.7435 8.47805 17.1049 11.6908 16.2441C14.9035 15.3832 17.0674 12.5619 17.2403 9.41211C16.9778 9.55528 16.7042 9.69268 16.4266 9.82393C14.8995 10.546 12.8158 11.2838 10.5261 11.8974C8.23627 12.511 6.06287 12.9137 4.37933 13.052C4.0733 13.0771 3.76769 13.0949 3.46875 13.1022Z" fill="#5D34D6"/>
<path d="M7.80886 1.7555C11.0418 0.889233 14.3459 2.27302 16.0618 4.94562C16.4606 4.951 16.8228 4.98299 17.1262 5.05141C17.3315 5.09772 17.5513 5.16959 17.7451 5.29086C17.9432 5.41483 18.1627 5.62328 18.2492 5.94612C18.3538 6.3364 18.2086 6.67402 18.0674 6.88824C17.924 7.1059 17.7225 7.29653 17.5141 7.4609C17.0923 7.79355 16.492 8.13435 15.7858 8.46818C14.3623 9.1413 12.3685 9.85125 10.1383 10.4489C7.90793 11.0465 5.82634 11.4284 4.25694 11.5574C3.47845 11.6213 2.78823 11.6264 2.25658 11.5492C1.99388 11.511 1.72408 11.4467 1.49107 11.3299C1.26173 11.2149 0.967129 10.9952 0.862555 10.6049C0.77605 10.2821 0.861888 9.9918 0.971473 9.78533C1.07867 9.58343 1.23308 9.4113 1.38779 9.2685C1.61631 9.05753 1.91399 8.84873 2.25661 8.64473C2.40636 5.47221 4.5759 2.62177 7.80886 1.7555Z" fill="#5D34D6"/>
</g>
</g>
<defs>
<clipPath id="clip0_1_2095">
<rect width="18" height="18" fill="white" transform="translate(0.75)"/>
</clipPath>
</defs>
</svg>
