<svg width="19" height="18" viewBox="0 0 19 18" fill="none" xmlns="http://www.w3.org/2000/svg">
<path fill-rule="evenodd" clip-rule="evenodd" d="M5.75 1.5C4.50736 1.5 3.5 2.50736 3.5 3.75V14.25C3.5 15.4927 4.50736 16.5 5.75 16.5H12.5C14.1568 16.5 15.5 15.1568 15.5 13.5V4.5C15.5 2.84314 14.1568 1.5 12.5 1.5H5.75ZM5 14.25C5 14.6642 5.33579 15 5.75 15H12.5C13.3285 15 14 14.3285 14 13.5V13.0987C13.5588 13.3539 13.0464 13.5 12.5 13.5H5.75C5.33579 13.5 5 13.8358 5 14.25ZM7.25 4.5C6.83579 4.5 6.5 4.83579 6.5 5.25C6.5 5.66421 6.83579 6 7.25 6H11.75C12.1642 6 12.5 5.66421 12.5 5.25C12.5 4.83579 12.1642 4.5 11.75 4.5H7.25ZM6.5 8.25C6.5 7.83577 6.83579 7.5 7.25 7.5H9.5C9.91423 7.5 10.25 7.83577 10.25 8.25C10.25 8.66423 9.91423 9 9.5 9H7.25C6.83579 9 6.5 8.66423 6.5 8.25Z" fill="white"/>
</svg>
