<svg width="20" height="20" viewBox="0 0 20 20" fill="none" xmlns="http://www.w3.org/2000/svg">
<g opacity="0.6">
<path d="M15.7453 3.62C14.5987 3.09556 13.3809 2.71333 12.1098 2.5C11.9498 2.77556 11.772 3.14889 11.6475 3.44222C10.2956 3.24666 8.95333 3.24666 7.61999 3.44222C7.49554 3.14889 7.30886 2.77556 7.15775 2.5C5.87777 2.71333 4.65999 3.09556 3.52133 3.62C1.21911 7.01554 0.59689 10.3311 0.908001 13.6022C2.43688 14.7133 3.91245 15.3889 5.36223 15.8333C5.71779 15.3533 6.03779 14.8377 6.31335 14.2955C5.7889 14.1 5.29112 13.86 4.81112 13.5755C4.93557 13.4867 5.06002 13.3889 5.17557 13.2911C8.07334 14.6156 11.212 14.6156 14.0742 13.2911C14.1987 13.3889 14.3142 13.4867 14.4387 13.5755C13.9586 13.86 13.4609 14.1 12.9364 14.2955C13.212 14.8377 13.532 15.3533 13.8875 15.8333C15.3364 15.3889 16.8209 14.7133 18.3418 13.6022C18.7239 9.81556 17.7364 6.52669 15.7453 3.62ZM6.71334 11.5844C5.84222 11.5844 5.13111 10.7933 5.13111 9.82445C5.13111 8.85557 5.82444 8.06442 6.71334 8.06442C7.59332 8.06442 8.3133 8.85557 8.29552 9.82445C8.29552 10.7933 7.59332 11.5844 6.71334 11.5844ZM12.5542 11.5844C11.6831 11.5844 10.9711 10.7933 10.9711 9.82445C10.9711 8.85557 11.6653 8.06442 12.5542 8.06442C13.4342 8.06442 14.1542 8.85557 14.1364 9.82445C14.1364 10.7933 13.4431 11.5844 12.5542 11.5844Z" fill="white"/>
</g>
</svg>
