<svg width="20" height="20" viewBox="0 0 20 20" fill="none" xmlns="http://www.w3.org/2000/svg">
<g opacity="0.6">
<path d="M1.31748 8.89917C6.46345 6.66488 9.89408 5.19178 11.6093 4.48011C16.5127 2.44789 17.5302 2.09494 18.1948 2.08312C18.341 2.08065 18.6664 2.11666 18.8787 2.28791C19.0552 2.43222 19.1049 2.62739 19.1297 2.76428C19.1518 2.90117 19.1822 3.21317 19.1574 3.45672C18.8927 6.23854 17.7427 12.9891 17.158 16.1049C16.9126 17.4233 16.4244 17.8653 15.9528 17.9085C14.9269 18.0025 14.1492 17.2333 13.1564 16.5848C11.6038 15.5698 10.7269 14.938 9.21842 13.9477C7.47553 12.803 8.60617 12.1738 9.599 11.1458C9.85817 10.8767 14.3753 6.78226 14.4608 6.41089C14.4719 6.36443 14.483 6.19126 14.3782 6.1C14.2762 6.00846 14.1243 6.0398 14.0141 6.06453C13.8568 6.09972 11.3777 7.73472 6.56812 10.9693C5.8649 11.4514 5.22788 11.6864 4.65426 11.6741C4.02549 11.6606 2.81216 11.3189 1.91037 11.027C0.807272 10.6688 -0.0724949 10.4794 0.0047222 9.87109C0.0433307 9.55442 0.481883 9.23034 1.31748 8.89917Z" fill="white"/>
</g>
</svg>
