<svg width="20" height="20" viewBox="0 0 20 20" fill="none" xmlns="http://www.w3.org/2000/svg">
<g opacity="0.6">
<path d="M10.0003 1.62598C14.6045 1.62598 18.3337 5.35514 18.3337 9.95933C18.3332 11.7053 17.7852 13.4073 16.7668 14.8256C15.7484 16.2439 14.3109 17.3071 12.6566 17.8656C12.2399 17.9489 12.0837 17.6885 12.0837 17.4697C12.0837 17.1885 12.0941 16.2927 12.0941 15.1781C12.0941 14.3968 11.8337 13.8968 11.5316 13.6364C13.3857 13.4281 15.3337 12.7197 15.3337 9.52183C15.3337 8.60516 15.0107 7.86556 14.4795 7.28223C14.5628 7.07389 14.8545 6.21973 14.3962 5.07389C14.3962 5.07389 13.6982 4.84473 12.1045 5.92806C11.4378 5.74056 10.7295 5.64681 10.0212 5.64681C9.31283 5.64681 8.60449 5.74056 7.93783 5.92806C6.34408 4.85514 5.64616 5.07389 5.64616 5.07389C5.18783 6.21973 5.47949 7.07389 5.56283 7.28223C5.03158 7.86556 4.70866 8.61558 4.70866 9.52183C4.70866 12.7093 6.64616 13.4281 8.50033 13.6364C8.26074 13.8447 8.04199 14.2093 7.96908 14.751C7.48991 14.9697 6.29199 15.3239 5.54199 14.0635C5.38574 13.8135 4.91699 13.1989 4.26074 13.2093C3.56283 13.2197 3.97949 13.6052 4.27116 13.7614C4.62533 13.9593 5.03158 14.6989 5.12533 14.9385C5.29199 15.4072 5.83366 16.3031 7.92741 15.9177C7.92741 16.6156 7.93783 17.2718 7.93783 17.4697C7.93783 17.6885 7.78158 17.9385 7.36491 17.8656C5.70516 17.3131 4.26151 16.2521 3.23875 14.8329C2.216 13.4137 1.66608 11.7086 1.66699 9.95933C1.66699 5.35514 5.39616 1.62598 10.0003 1.62598Z" fill="white"/>
</g>
</svg>
