<svg width="204" height="47" viewBox="0 0 204 47" fill="none" xmlns="http://www.w3.org/2000/svg">
<path d="M25.971 3.98438C26.9197 3.98438 27.689 4.75367 27.689 5.70234V10.241C27.6782 10.1634 27.689 10.3216 27.689 10.241C27.5436 10.9207 26.9434 11.6995 25.6433 11.6996V11.7157H21.4625C20.6324 11.7157 19.9597 12.3885 19.9596 13.2185V17.7663C19.8967 18.4771 19.4411 19.445 17.92 19.445H13.7332C12.9032 19.445 12.2296 20.118 12.2293 20.9479V25.6725C12.2296 26.5024 12.9032 27.1754 13.7332 27.1754H18.4558L18.6126 27.1874C19.3761 27.3109 19.8254 28.316 19.9596 28.7858V33.4018C19.9597 34.2319 20.6324 34.9047 21.4625 34.9047H26.1861C27.0162 34.9047 27.6889 34.2319 27.689 33.4018V28.6782C27.689 28.6225 27.6858 28.5674 27.6799 28.5133C27.9301 27.9801 28.5053 27.2388 29.228 27.2387V27.1743H33.9154C34.7454 27.1743 35.4181 26.5014 35.4183 25.6715V20.9479C35.4183 20.1178 34.7455 19.444 33.9154 19.444H29.1918C28.3617 19.444 27.689 20.1178 27.689 20.9479V25.6715C27.689 25.7091 27.6913 25.7462 27.694 25.7831C27.5803 26.3192 27.1904 26.9442 26.3198 27.1814C26.2758 27.1775 26.2312 27.1754 26.1861 27.1754H21.4625C21.3929 27.1754 21.3245 27.1803 21.2574 27.1894C20.3218 26.9312 20.0109 26.183 19.9596 25.6042V20.9479L20.03 20.7388C20.219 20.2491 20.6445 19.5533 21.3057 19.4561L21.4625 19.445H26.1861C27.0162 19.445 27.689 18.7723 27.689 17.9422V13.2185C27.689 13.168 27.6868 13.118 27.6819 13.0688C27.8602 12.5584 28.2884 11.7926 28.9676 11.7087C29.0084 11.712 29.0497 11.7157 29.0913 11.7157H33.7405C34.671 11.7366 35.4192 12.4962 35.4193 13.4317V17.7261C35.4193 18.6746 36.1877 19.4438 37.1362 19.444H41.4307C42.3793 19.444 43.1486 20.2133 43.1486 21.162V25.4554C43.1486 26.404 42.3793 27.1733 41.4307 27.1733H37.1362C36.1877 27.1735 35.4193 27.9428 35.4193 28.8913V33.1857C35.4192 34.1342 34.6499 34.9036 33.7013 34.9037H29.4069C28.4584 34.9037 27.6892 35.6721 27.689 36.6206V40.915C27.689 41.8637 26.9197 42.633 25.971 42.633H21.6776C20.7289 42.633 19.9596 41.8637 19.9596 40.915V36.6206C19.9595 35.6721 19.1902 34.9037 18.2417 34.9037H13.9473C12.9987 34.9036 12.2294 34.1342 12.2293 33.1857V28.8913C12.2293 27.9428 11.4609 27.1735 10.5124 27.1733H6.21796C5.26929 27.1733 4.5 26.4041 4.5 25.4554V21.162C4.5 20.2133 5.26929 19.444 6.21796 19.444H10.5124C11.4609 19.4438 12.2293 18.6746 12.2293 17.7261V13.4317C12.2294 12.4831 12.9987 11.7138 13.9473 11.7137H18.2417C19.1902 11.7137 19.9595 10.9452 19.9596 9.99674V5.70234C19.9596 4.75367 20.7289 3.98438 21.6776 3.98438H25.971Z" fill="url(#paint0_linear_1_2146)"/>
<path d="M61.0803 36.0641C55.3116 36.0641 49.543 31.6672 49.543 23.4715C49.543 15.2406 55.5579 10.8789 61.1155 10.8789H63.1205C68.7133 10.8789 72.7935 14.9944 73.3212 20.1651H68.6077C68.256 17.4918 66.0048 15.0647 63.1908 15.0647H61.1507C57.8794 15.0647 54.5026 18.1249 54.5026 23.4715C54.5026 28.7829 57.7035 31.8783 61.0451 31.8783H63.0853C66.0048 31.8783 68.2208 29.5919 68.6077 26.7779H73.3212C72.8639 32.1949 67.9746 36.0641 63.0501 36.0641H61.0803Z" fill="white"/>
<path d="M83.2839 36.0641C78.3946 36.0641 74.7012 32.1949 74.7012 26.9186C74.7012 21.6072 78.3946 17.7732 83.2487 17.7732H84.7612C89.6505 17.7732 93.3087 21.6072 93.3087 26.9186C93.3087 32.23 89.6505 36.0641 84.7964 36.0641H83.2839ZM84.6557 32.1597C86.9421 32.1597 88.736 29.8733 88.736 26.9186C88.736 23.9639 86.9421 21.6776 84.6557 21.6776H83.3894C81.0679 21.6776 79.2739 23.8936 79.2739 26.9186C79.2739 29.9437 81.0679 32.1597 83.3894 32.1597H84.6557Z" fill="white"/>
<path d="M101.15 42.9584C96.5074 42.9584 93.9045 40.9182 93.9045 37.9635C93.9045 36.6972 94.4673 35.5716 95.3466 34.7274C95.7687 34.3053 95.7687 34.0239 95.3466 33.5667C94.8894 33.0391 94.5376 32.3707 94.5376 31.5617C94.5376 30.2954 95.4873 29.1698 96.9999 28.6422C97.5275 28.4311 97.5978 28.1497 97.1757 27.7276C96.0853 26.7076 95.5577 25.3709 95.5577 23.9288C95.5577 20.2354 98.6531 17.7732 102.487 17.7732H103.789C105.336 17.7732 106.532 18.0546 108.572 18.0546H112.793V21.15H110.929C110.19 21.15 109.944 21.5369 110.261 22.17C110.613 22.8032 110.788 23.4715 110.788 24.1398C110.788 27.5518 107.587 30.1195 103.859 30.1195H100.271C99.4973 30.1195 98.8993 30.5065 98.8993 31.1748C98.8993 31.8079 99.4621 32.23 100.412 32.23H106.532C110.331 32.23 112.829 34.3405 112.829 37.3656C112.829 40.7423 109.663 42.9584 105.477 42.9584H101.15ZM105.899 39.4057C107.447 39.4057 108.397 38.667 108.397 37.4711C108.397 36.4158 107.517 35.6772 105.969 35.6772H100.975C98.7938 35.6772 98.3365 36.7324 98.3365 37.5414C98.3365 38.5967 99.1807 39.4057 100.975 39.4057H105.899ZM103.753 26.6021C105.407 26.6021 106.427 25.3358 106.427 23.9288C106.427 22.5569 105.407 21.2907 103.753 21.2907H102.557C101.291 21.2907 99.8842 22.2756 99.8842 23.9288C99.8842 25.6172 101.256 26.6021 102.522 26.6021H103.753Z" fill="white"/>
<path d="M125.155 17.7732C129.763 17.7732 133.386 21.7128 133.386 26.9186C133.386 32.1245 129.763 36.0641 125.155 36.0641H124.205C122.974 36.0641 121.602 35.5365 120.582 34.7978C119.773 34.3405 119.245 34.5867 119.245 35.3254V42.9584H114.708V18.0546H119.245V18.6877C119.245 19.2505 119.808 19.4967 120.582 19.0043C121.673 18.2304 123.044 17.7732 124.24 17.7732H125.155ZM123.22 21.6776C120.864 21.6776 118.929 23.8584 118.929 26.9186C118.929 29.9788 120.864 32.1597 123.22 32.1597H124.522C126.773 32.1597 128.778 29.9788 128.778 26.9186C128.778 23.8584 126.773 21.6776 124.522 21.6776H123.22Z" fill="white"/>
<path d="M135.68 35.7827V18.0546H140.217V35.7827H135.68ZM135.539 11.1603H140.393V15.2406H135.539V11.1603Z" fill="white"/>
<path d="M148.244 27.9035C147.506 27.9035 147.154 28.3608 147.365 28.9939C147.787 30.823 149.124 32.3004 151.058 32.3004H152.501C154.224 32.3004 155.631 31.1748 155.877 29.803H160.204C159.817 33.4963 156.475 36.0641 152.43 36.0641H151.023C146.169 36.0641 142.546 32.23 142.546 26.8835C142.546 21.1148 146.908 17.7732 150.953 17.7732H152.43C157.003 17.7732 160.38 21.5721 160.38 26.3558C160.38 27.1649 160.309 27.7276 160.309 27.9035H148.244ZM147.787 23.5418C147.4 24.175 147.717 24.7026 148.455 24.7026H154.822C155.526 24.7026 155.912 24.2102 155.631 23.577C155.139 22.2404 153.872 21.2907 152.43 21.2907H151.023C149.722 21.2907 148.455 22.0293 147.787 23.5418Z" fill="white"/>
<path d="M170.418 36.0641C165.071 36.0641 161.8 31.9838 161.8 26.9186C161.8 21.8183 165.142 17.7732 170.488 17.7732H171.755C176.011 17.7732 179.317 20.6575 179.599 25.0544H175.131C174.92 23.1901 173.654 21.6776 171.719 21.6776H170.488C167.815 21.6776 166.373 24.1046 166.373 26.9186C166.373 29.7678 167.815 32.1597 170.418 32.1597H171.649C173.584 32.1597 174.78 30.7175 175.167 28.8532H179.669C179.141 32.9335 176.151 36.0641 171.649 36.0641H170.418Z" fill="white"/>
<path d="M186.615 27.9035C185.877 27.9035 185.525 28.3608 185.736 28.9939C186.158 30.823 187.495 32.3004 189.429 32.3004H190.871C192.595 32.3004 194.002 31.1748 194.248 29.803H198.575C198.188 33.4963 194.846 36.0641 190.801 36.0641H189.394C184.54 36.0641 180.917 32.23 180.917 26.8835C180.917 21.1148 185.279 17.7732 189.324 17.7732H190.801C195.374 17.7732 198.75 21.5721 198.75 26.3558C198.75 27.1649 198.68 27.7276 198.68 27.9035H186.615ZM186.158 23.5418C185.771 24.175 186.088 24.7026 186.826 24.7026H193.193C193.896 24.7026 194.283 24.2102 194.002 23.577C193.509 22.2404 192.243 21.2907 190.801 21.2907H189.394C188.093 21.2907 186.826 22.0293 186.158 23.5418Z" fill="white"/>
<defs>
<linearGradient id="paint0_linear_1_2146" x1="23.8243" y1="3.98437" x2="23.8243" y2="42.633" gradientUnits="userSpaceOnUse">
<stop stop-color="white"/>
<stop offset="1" stop-color="#5D34D6"/>
</linearGradient>
</defs>
</svg>
