<svg width="19" height="19" viewBox="0 0 19 19" fill="none" xmlns="http://www.w3.org/2000/svg">
<path d="M13.866 2.39423C14.1406 2.11965 14.5749 2.1027 14.8695 2.34296L14.9265 2.39423L17.1765 4.64423L17.2278 4.70137C17.4681 4.99594 17.4512 5.43019 17.1765 5.70478C16.902 5.97937 16.4677 5.99632 16.1732 5.75605L16.116 5.70478L13.866 3.45478L13.8147 3.39766C13.5745 3.10307 13.5915 2.66882 13.866 2.39423Z" fill="white"/>
<path d="M3.74066 2.39435C4.03356 2.10146 4.50832 2.10146 4.80122 2.39435C5.09411 2.68725 5.09411 3.16201 4.80122 3.4549L2.55122 5.7049C2.25832 5.99779 1.78356 5.99779 1.49066 5.7049C1.19777 5.41201 1.19777 4.93725 1.49066 4.64435L3.74066 2.39435Z" fill="white"/>
<path opacity="0.4" d="M9.33347 16.7997C13.165 16.7997 16.271 13.6936 16.271 9.86218C16.271 6.03071 13.165 2.92468 9.33347 2.92468C5.50202 2.92468 2.396 6.03071 2.396 9.86218C2.396 13.6936 5.50202 16.7997 9.33347 16.7997Z" fill="white"/>
<path d="M8.5835 6.48718C8.5835 6.07297 8.91927 5.73718 9.3335 5.73718C9.74772 5.73718 10.0835 6.07297 10.0835 6.48718V9.55161L11.3637 10.8319L11.415 10.889C11.6553 11.1836 11.6383 11.6179 11.3637 11.8924C11.0892 12.167 10.6549 12.184 10.3603 11.9437L10.3032 11.8924L8.80325 10.3924C8.66255 10.2518 8.5835 10.0611 8.5835 9.86218V6.48718Z" fill="white"/>
<path d="M3.94791 14.2333C4.26414 14.6224 4.62216 14.9755 5.01432 15.288L3.6674 16.591C3.36968 16.8787 2.89473 16.8701 2.60685 16.5727C2.31907 16.2749 2.32677 15.8 2.62442 15.5121L3.94791 14.2333Z" fill="white"/>
<path d="M16.0476 15.515L16.0996 15.5721C16.3415 15.8652 16.3269 16.2993 16.0542 16.5756C15.7812 16.8517 15.3468 16.872 15.0507 16.6334L14.9937 16.5828L13.668 15.274C14.0593 14.9603 14.4162 14.6058 14.7315 14.2157L16.0476 15.515Z" fill="white"/>
</svg>
