<svg width="18" height="18" viewBox="0 0 18 18" fill="none" xmlns="http://www.w3.org/2000/svg">
<path opacity="0.4" fill-rule="evenodd" clip-rule="evenodd" d="M1.5 9C1.5 5.7168 3.93364 3.375 7.125 3.375H15.375C15.7892 3.375 16.125 3.71079 16.125 4.125C16.125 4.53921 15.7892 4.875 15.375 4.875H7.125C4.74645 4.875 3 6.56075 3 9C3 9.41423 2.66421 9.75 2.25 9.75C1.83579 9.75 1.5 9.41423 1.5 9Z" fill="white"/>
<path d="M13.2712 1.80529C13.5168 1.47176 13.9863 1.40052 14.3198 1.64616L14.3226 1.64825C14.3792 1.691 14.5396 1.81211 14.6294 1.88228C14.8115 2.02436 15.0568 2.22108 15.3043 2.43595C15.548 2.64758 15.8111 2.8916 16.0191 3.12704C16.1224 3.24391 16.228 3.37636 16.3118 3.51542C16.3832 3.6339 16.5001 3.85443 16.5001 4.12506C16.5001 4.3957 16.3832 4.61623 16.3118 4.73471C16.228 4.87377 16.1224 5.00622 16.0191 5.12309C15.8111 5.35853 15.548 5.60254 15.3043 5.81417C15.0568 6.02904 14.8115 6.22575 14.6294 6.36783C14.5394 6.4381 14.3788 6.55936 14.3224 6.60194L14.3199 6.60386C13.9864 6.84949 13.5168 6.77833 13.2712 6.4448C13.1738 6.31251 13.1261 6.15883 13.125 6.0062V2.25005C13.1249 2.0954 13.1724 1.93936 13.2712 1.80529Z" fill="white"/>
<path opacity="0.4" fill-rule="evenodd" clip-rule="evenodd" d="M16.5 9C16.5 12.2832 14.0664 14.625 10.875 14.625H2.625C2.21079 14.625 1.875 14.2892 1.875 13.875C1.875 13.4608 2.21079 13.125 2.625 13.125H10.875C13.2535 13.125 15 11.4392 15 9C15 8.58578 15.3358 8.25 15.75 8.25C16.1642 8.25 16.5 8.58578 16.5 9Z" fill="white"/>
<path d="M4.7289 16.1947C4.48327 16.5283 4.01377 16.5995 3.68024 16.3539L3.67757 16.3519C3.62104 16.3092 3.46058 16.188 3.37061 16.1178C3.18855 15.9757 2.94327 15.7789 2.69579 15.5641C2.45204 15.3525 2.18896 15.1084 1.98093 14.873C1.87767 14.7562 1.77208 14.6237 1.68825 14.4847C1.61683 14.3662 1.5 14.1456 1.5 13.875C1.5 13.6044 1.61683 13.3838 1.68826 13.2654C1.77208 13.1263 1.87767 12.9938 1.98093 12.877C2.18896 12.6415 2.45203 12.3975 2.69578 12.1859C2.94325 11.971 3.18854 11.7743 3.37059 11.6322C3.46059 11.562 3.62104 11.4408 3.6775 11.3981L3.6801 11.3962C4.01362 11.1505 4.48324 11.2217 4.72888 11.5552C4.82762 11.6893 4.87516 11.8453 4.87504 12V15.7468C4.87583 15.9025 4.82833 16.0597 4.7289 16.1947Z" fill="white"/>
</svg>
