<svg width="123" height="12" viewBox="0 0 123 12" fill="none" xmlns="http://www.w3.org/2000/svg">
<path d="M122.53 6.53033C122.823 6.23744 122.823 5.76256 122.53 5.46967L117.757 0.696699C117.464 0.403806 116.99 0.403806 116.697 0.696699C116.404 0.989592 116.404 1.46447 116.697 1.75736L120.939 6L116.697 10.2426C116.404 10.5355 116.404 11.0104 116.697 11.3033C116.99 11.5962 117.464 11.5962 117.757 11.3033L122.53 6.53033ZM0 6V6.75H2.03333V6V5.25H0V6ZM6.1 6V6.75H10.1667V6V5.25H6.1V6ZM14.2333 6V6.75H18.3V6V5.25H14.2333V6ZM22.3667 6V6.75H26.4333V6V5.25H22.3667V6ZM30.5 6V6.75H34.5667V6V5.25H30.5V6ZM38.6333 6V6.75H42.7V6V5.25H38.6333V6ZM46.7667 6V6.75H50.8333V6V5.25H46.7667V6ZM54.9 6V6.75H58.9667V6V5.25H54.9V6ZM63.0333 6V6.75H67.1V6V5.25H63.0333V6ZM71.1667 6V6.75H75.2333V6V5.25H71.1667V6ZM79.3 6V6.75H83.3667V6V5.25H79.3V6ZM87.4333 6V6.75H91.5V6V5.25H87.4333V6ZM95.5666 6V6.75H99.6333V6V5.25H95.5666V6ZM103.7 6V6.75H107.767V6V5.25H103.7V6ZM111.833 6V6.75H115.9V6V5.25H111.833V6ZM119.967 6V6.75H122V6V5.25H119.967V6Z" fill="white" fill-opacity="0.25"/>
</svg>
