<svg width="19" height="18" viewBox="0 0 19 18" fill="none" xmlns="http://www.w3.org/2000/svg">
<path fill-rule="evenodd" clip-rule="evenodd" d="M4.25 15C4.25 14.5858 4.58579 14.25 5 14.25H14C14.4142 14.25 14.75 14.5858 14.75 15C14.75 15.4142 14.4142 15.75 14 15.75H5C4.58579 15.75 4.25 15.4142 4.25 15Z" fill="white"/>
<path opacity="0.4" d="M8.7503 2.99988C8.7503 2.58566 9.08608 2.24988 9.5003 2.24988C9.91453 2.24988 10.2503 2.58566 10.2503 2.99988V8.24998H11.0655C11.35 8.24983 11.6449 8.24975 11.8788 8.28575C12.1288 8.32423 12.5633 8.44145 12.7775 8.89798C12.9895 9.3497 12.809 9.75373 12.6775 9.97303C12.5572 10.1738 12.3707 10.3969 12.1928 10.6096L12.1633 10.6449C11.8042 11.0747 11.374 11.5605 10.9647 11.9447C10.7613 12.1357 10.5451 12.3186 10.332 12.4584C10.1476 12.5794 9.84658 12.75 9.5 12.75C9.15343 12.75 8.85245 12.5794 8.6681 12.4584C8.45495 12.3186 8.2388 12.1357 8.03533 11.9447C7.6261 11.5605 7.1959 11.0747 6.83672 10.6449L6.80724 10.6096C6.62932 10.3969 6.44281 10.1739 6.32249 9.9731C6.19104 9.75372 6.01054 9.3497 6.22249 8.89798C6.43666 8.44145 6.87126 8.32423 7.12125 8.28575C7.35505 8.24975 7.65004 8.2499 7.93456 8.24998H8.7503V2.99988Z" fill="white"/>
</svg>
