<svg width="39" height="38" viewBox="0 0 39 38" fill="none" xmlns="http://www.w3.org/2000/svg">
<g filter="url(#filter0_i_106_149419)">
<path d="M0.75 18.75C0.75 8.39466 9.14466 0 19.5 0C29.8553 0 38.25 8.39466 38.25 18.75C38.25 29.1053 29.8553 37.5 19.5 37.5C9.14466 37.5 0.75 29.1053 0.75 18.75Z" fill="black" fill-opacity="0.1"/>
<path d="M19.5 0.524414C29.5656 0.524414 37.7256 8.68443 37.7256 18.75C37.7256 28.8156 29.5656 36.9756 19.5 36.9756C9.43443 36.9756 1.27441 28.8156 1.27441 18.75C1.27441 8.68443 9.43443 0.524414 19.5 0.524414Z" stroke="#5D34D6" stroke-width="1.04936"/>
<path opacity="0.4" fill-rule="evenodd" clip-rule="evenodd" d="M14.7592 8.38989C13.0658 8.38989 11.3789 9.56396 11.3008 11.4705C11.2133 13.6076 12.7405 14.9636 13.903 15.9497C14.7529 16.6707 15.3239 17.1572 15.7028 17.5696C16.0707 17.9699 16.1496 18.1885 16.1651 18.3475C16.1729 18.4277 16.1729 18.5083 16.1651 18.5885C16.1496 18.7476 16.0707 18.9661 15.7028 19.3664C15.3239 19.7788 14.7529 20.2654 13.903 20.9863L13.8549 21.0271C12.6772 22.0257 11.2108 23.2691 11.3008 25.4655C11.3789 27.3721 13.0658 28.5461 14.7592 28.5461L24.2408 28.5461C25.9343 28.5461 27.6211 27.3721 27.6992 25.4655C27.7518 24.1824 27.2781 22.8749 26.2408 21.9578C25.9823 21.7293 25.7098 21.501 25.4487 21.2823L25.4476 21.2813C25.3275 21.1807 25.2098 21.082 25.097 20.9863C24.2471 20.2654 23.6762 19.7788 23.2972 19.3664C22.9293 18.9661 22.8504 18.7476 22.835 18.5885C22.8271 18.5083 22.8271 18.4277 22.835 18.3475C22.8504 18.1885 22.9293 17.9699 23.2972 17.5696C23.6762 17.1572 24.2471 16.6707 25.097 15.9497L25.1117 15.9372C26.2842 14.9426 27.7891 13.6661 27.6992 11.4705C27.6211 9.56396 25.9343 8.38989 24.2408 8.38989L14.7592 8.38989ZM16.0039 26.1444C15.8729 26.3688 15.8477 26.7138 16.2131 26.7138L22.7878 26.7138C23.1532 26.7138 23.1279 26.3688 22.997 26.1444C22.7906 25.791 22.4558 25.5543 22.1937 25.3689C21.3908 24.7953 20.5392 24.0928 19.4998 24.093C18.4609 24.0933 17.6097 24.7956 16.8071 25.3689C16.545 25.5543 16.2102 25.791 16.0039 26.1444Z" fill="white"/>
<path fill-rule="evenodd" clip-rule="evenodd" d="M16.0032 26.1444C15.8723 26.3688 15.847 26.7138 16.2124 26.7138H22.7871C23.1526 26.7138 23.1272 26.3688 22.9963 26.1444C22.79 25.791 22.4552 25.5543 22.193 25.3689C21.3902 24.7953 20.5385 24.0928 19.4991 24.093C18.4603 24.0933 17.609 24.7955 16.8065 25.3689C16.5443 25.5543 16.2095 25.791 16.0032 26.1444Z" fill="white"/>
</g>
<defs>
<filter id="filter0_i_106_149419" x="0.75" y="0" width="37.5" height="37.5" filterUnits="userSpaceOnUse" color-interpolation-filters="sRGB">
<feFlood flood-opacity="0" result="BackgroundImageFix"/>
<feBlend mode="normal" in="SourceGraphic" in2="BackgroundImageFix" result="shape"/>
<feColorMatrix in="SourceAlpha" type="matrix" values="0 0 0 0 0 0 0 0 0 0 0 0 0 0 0 0 0 0 127 0" result="hardAlpha"/>
<feMorphology radius="5" operator="erode" in="SourceAlpha" result="effect1_innerShadow_106_149419"/>
<feOffset/>
<feGaussianBlur stdDeviation="5"/>
<feComposite in2="hardAlpha" operator="arithmetic" k2="-1" k3="1"/>
<feColorMatrix type="matrix" values="0 0 0 0 0.364706 0 0 0 0 0.203922 0 0 0 0 0.839216 0 0 0 0.5 0"/>
<feBlend mode="normal" in2="shape" result="effect1_innerShadow_106_149419"/>
</filter>
</defs>
</svg>
