<svg width="39" height="38" viewBox="0 0 39 38" fill="none" xmlns="http://www.w3.org/2000/svg">
<g filter="url(#filter0_i_87_117098)">
<path d="M0.75 18.75C0.75 8.39466 9.14466 0 19.5 0C29.8553 0 38.25 8.39466 38.25 18.75C38.25 29.1053 29.8553 37.5 19.5 37.5C9.14466 37.5 0.75 29.1053 0.75 18.75Z" fill="black" fill-opacity="0.1"/>
<path d="M19.5 0.524414C29.5656 0.524414 37.7256 8.68443 37.7256 18.75C37.7256 28.8156 29.5656 36.9756 19.5 36.9756C9.43443 36.9756 1.27441 28.8156 1.27441 18.75C1.27441 8.68443 9.43443 0.524414 19.5 0.524414Z" stroke="#5D34D6" stroke-width="1.04936"/>
<path opacity="0.4" d="M19.9429 21.5531C19.4397 20.8583 18.6438 20.3829 17.6865 20.3829H16.5829C16.4307 20.3829 16.276 20.3448 16.1298 20.2654L15.1932 19.757C14.506 18.6472 14.1094 17.3387 14.1094 15.9375C14.1094 11.9248 17.3623 8.67188 21.375 8.67187C25.3877 8.67187 28.6406 11.9248 28.6406 15.9375C28.6406 17.7196 27.999 19.352 26.9342 20.6159C26.1827 19.992 25.1702 19.7476 24.1751 20.0943L19.9429 21.5531Z" fill="white"/>
<path fill-rule="evenodd" clip-rule="evenodd" d="M21.375 10.5469C21.7633 10.5469 22.0781 10.8617 22.0781 11.25V11.5636C22.8175 11.733 23.47 12.169 23.7793 12.8253C23.9449 13.1765 23.7943 13.5955 23.443 13.761C23.0918 13.9266 22.6728 13.776 22.5073 13.4247C22.3973 13.1915 22.0016 12.8906 21.375 12.8906C20.9947 12.8906 20.6774 13.0071 20.4711 13.1619C20.2649 13.3165 20.2031 13.4764 20.2031 13.5938C20.2031 13.7111 20.2649 13.871 20.4711 14.0256C20.6774 14.1804 20.9947 14.2969 21.375 14.2969C22.0302 14.2969 22.6504 14.4952 23.1227 14.8494C23.5952 15.2038 23.9531 15.747 23.9531 16.4062C23.9531 17.0655 23.5952 17.6088 23.1227 17.9632C22.8241 18.187 22.4664 18.3487 22.0781 18.4372V18.75C22.0781 19.1383 21.7633 19.4531 21.375 19.4531C20.9867 19.4531 20.6719 19.1383 20.6719 18.75V18.4364C19.9325 18.267 19.28 17.831 18.9707 17.1747C18.8051 16.8235 18.9557 16.4045 19.307 16.239C19.6582 16.0734 20.0772 16.224 20.2427 16.5753C20.3527 16.8085 20.7484 17.1094 21.375 17.1094C21.7553 17.1094 22.0726 16.9928 22.2789 16.8381C22.4851 16.6835 22.5469 16.5236 22.5469 16.4062C22.5469 16.2889 22.4851 16.129 22.2789 15.9744C22.0726 15.8196 21.7553 15.7031 21.375 15.7031C20.7198 15.7031 20.0996 15.5048 19.6273 15.1506C19.1548 14.7962 18.7969 14.253 18.7969 13.5938C18.7969 12.9345 19.1548 12.3913 19.6273 12.0369C19.9259 11.813 20.2836 11.6513 20.6719 11.5627V11.25C20.6719 10.8617 20.9867 10.5469 21.375 10.5469Z" fill="white"/>
<path d="M20.2732 22.6788L24.5589 21.2016C25.309 20.9393 26.1237 21.2483 26.5989 21.9865C26.9 22.4543 26.7729 23.1207 26.3439 23.3984L18.3889 28.5479C17.9454 28.835 17.4235 28.9045 16.9371 28.7425L10.9988 26.7656C10.6158 26.6381 10.3574 26.2798 10.3574 25.8761L10.3574 20.8594C10.3574 20.3416 10.7771 19.9219 11.2949 19.9219H12.6276C12.8993 19.9219 13.167 19.9906 13.4093 20.1221L15.5706 21.2953C15.8853 21.4661 16.2318 21.5548 16.5828 21.5548H17.6864C18.5698 21.5548 19.2807 22.2916 19.3489 23.211V23.3362L16.7902 24.1298C16.373 24.2593 15.9263 24.2172 15.5324 24.0078L13.348 22.6206C13.1295 22.4817 12.8398 22.5464 12.701 22.7649C12.5623 22.9835 12.6269 23.2732 12.8454 23.4119L15.0442 24.8083C15.0532 24.814 15.0624 24.8195 15.0718 24.8245C15.6884 25.1592 16.4017 25.232 17.0679 25.0253L19.7574 24.1911C20.1239 24.0774 20.3515 23.7271 20.3515 23.3563C20.3515 23.1442 20.33 22.9372 20.2892 22.7376C20.285 22.7174 20.2797 22.6978 20.2732 22.6788Z" fill="white"/>
</g>
<defs>
<filter id="filter0_i_87_117098" x="0.75" y="0" width="37.5" height="37.5" filterUnits="userSpaceOnUse" color-interpolation-filters="sRGB">
<feFlood flood-opacity="0" result="BackgroundImageFix"/>
<feBlend mode="normal" in="SourceGraphic" in2="BackgroundImageFix" result="shape"/>
<feColorMatrix in="SourceAlpha" type="matrix" values="0 0 0 0 0 0 0 0 0 0 0 0 0 0 0 0 0 0 127 0" result="hardAlpha"/>
<feMorphology radius="5" operator="erode" in="SourceAlpha" result="effect1_innerShadow_87_117098"/>
<feOffset/>
<feGaussianBlur stdDeviation="5"/>
<feComposite in2="hardAlpha" operator="arithmetic" k2="-1" k3="1"/>
<feColorMatrix type="matrix" values="0 0 0 0 0.364706 0 0 0 0 0.203922 0 0 0 0 0.839216 0 0 0 0.5 0"/>
<feBlend mode="normal" in2="shape" result="effect1_innerShadow_87_117098"/>
</filter>
</defs>
</svg>
