<svg width="18" height="19" viewBox="0 0 18 19" fill="none" xmlns="http://www.w3.org/2000/svg">
<path opacity="0.4" d="M16.3125 9.43356V11.0067C16.3125 12.3432 16.3125 13.4205 16.1989 14.2678C16.0809 15.1474 15.8284 15.8881 15.2416 16.4763C14.6548 17.0645 13.9158 17.3176 13.0382 17.4358C12.1929 17.5497 11.1182 17.5497 9.78473 17.5497H8.21528C6.88186 17.5497 5.80709 17.5497 4.9618 17.4358C4.08419 17.3176 3.34526 17.0645 2.7584 16.4763C2.17153 15.8881 1.9191 15.1474 1.80111 14.2678C1.68747 13.4205 1.68749 12.3433 1.6875 11.0068V9.43356C1.68749 8.83843 1.68749 8.29461 1.69751 7.79968H3.1604C3.15034 8.28403 3.15001 8.84053 3.15001 9.48718V10.9531C3.15001 12.3559 3.15156 13.3342 3.25058 14.0725C3.34676 14.7895 3.5227 15.1693 3.79255 15.4397C4.06239 15.7102 4.44125 15.8866 5.15668 15.983C5.89314 16.0822 6.86923 16.0838 8.26875 16.0838H9.73125C11.1308 16.0838 12.1069 16.0822 12.8434 15.983C13.5588 15.8866 13.9376 15.7102 14.2075 15.4397C14.4773 15.1693 14.6533 14.7895 14.7494 14.0725C14.8484 13.3342 14.85 12.3559 14.85 10.9531V9.48718C14.85 8.84053 14.8497 8.28403 14.8396 7.79968H16.3025C16.3125 8.29461 16.3125 8.83836 16.3125 9.43356Z" fill="white"/>
<path d="M6.07475 1.42468C6.47861 1.42468 6.806 1.75284 6.806 2.15764V2.89681C7.23942 2.89058 7.70854 2.89058 8.21501 2.89059H9.78454C10.2909 2.89058 10.7601 2.89058 11.1935 2.89681V2.15764C11.1935 1.75284 11.5209 1.42468 11.9247 1.42468C12.3286 1.42468 12.656 1.75284 12.656 2.15764V2.96179C12.7882 2.97385 12.9155 2.98796 13.038 3.00447C13.9155 3.12274 14.6545 3.37574 15.2414 3.96398C15.8283 4.55221 16.0806 5.29287 16.1986 6.17252C16.2617 6.64248 16.2897 7.18321 16.3023 7.79968H1.69727C1.70975 7.18321 1.73783 6.64248 1.80086 6.17252C1.91885 5.29287 2.17127 4.55221 2.75814 3.96398C3.34501 3.37574 4.08394 3.12274 4.96154 3.00447C5.08402 2.98796 5.21131 2.97385 5.3435 2.96179V2.15764C5.3435 1.75284 5.67089 1.42468 6.07475 1.42468Z" fill="white"/>
<path fill-rule="evenodd" clip-rule="evenodd" d="M7.5 10.4422C7.5 10.028 7.83578 9.6922 8.25 9.6922H12C12.4142 9.6922 12.75 10.028 12.75 10.4422C12.75 10.8564 12.4142 11.1922 12 11.1922H8.25C7.83578 11.1922 7.5 10.8564 7.5 10.4422ZM5.25 10.4422C5.25 10.028 5.58579 9.6922 6 9.6922H6.00673C6.42095 9.6922 6.75673 10.028 6.75673 10.4422C6.75673 10.8564 6.42095 11.1922 6.00673 11.1922H6C5.58579 11.1922 5.25 10.8564 5.25 10.4422ZM5.25 13.4422C5.25 13.028 5.58579 12.6922 6 12.6922H9.75C10.1642 12.6922 10.5 13.028 10.5 13.4422C10.5 13.8564 10.1642 14.1922 9.75 14.1922H6C5.58579 14.1922 5.25 13.8564 5.25 13.4422ZM11.2433 13.4422C11.2433 13.028 11.579 12.6922 11.9933 12.6922H12C12.4142 12.6922 12.75 13.028 12.75 13.4422C12.75 13.8564 12.4142 14.1922 12 14.1922H11.9933C11.579 14.1922 11.2433 13.8564 11.2433 13.4422Z" fill="white"/>
</svg>
