<svg width="20" height="20" viewBox="0 0 20 20" fill="none" xmlns="http://www.w3.org/2000/svg">
<path opacity="0.4" d="M9.99992 18.9584C5.05233 18.9584 1.0415 14.9476 1.0415 9.99999C1.0415 5.05239 5.05233 1.04156 9.99992 1.04156C14.9476 1.04156 18.9583 5.05239 18.9583 9.99999C18.9583 14.9476 14.9476 18.9584 9.99992 18.9584Z" fill="#CBBAFF"/>
<path fill-rule="evenodd" clip-rule="evenodd" d="M13.9479 8.06308C14.2588 7.72381 14.2359 7.19667 13.8967 6.88567C13.5574 6.57468 13.0302 6.59759 12.7192 6.93686L8.72402 11.2953L7.2561 9.82741C6.93066 9.50199 6.40302 9.50199 6.07757 9.82741C5.75214 10.1528 5.75214 10.6805 6.07757 11.0059L8.16093 13.0893C8.32165 13.25 8.54102 13.3381 8.76827 13.3332C8.99553 13.3282 9.21086 13.2307 9.36453 13.0631L13.9479 8.06308Z" fill="#CBBAFF"/>
</svg>
