<svg width="18" height="19" viewBox="0 0 18 19" fill="none" xmlns="http://www.w3.org/2000/svg">
<path opacity="0.4" d="M5.95883 6.67468C4.93313 6.67467 4.1064 6.67465 3.45615 6.76207C2.78107 6.85284 2.21272 7.04701 1.76122 7.49845C1.3098 7.94989 1.11562 8.51826 1.02487 9.19341C0.9375 9.84358 0.937499 10.6703 0.937499 11.696V12.5284C0.937499 13.5541 0.9375 14.3808 1.02487 15.031C1.11562 15.7061 1.3098 16.2745 1.76122 16.726C2.21272 17.1774 2.78107 17.3716 3.45615 17.4623C4.1064 17.5497 4.93313 17.5497 5.95883 17.5497H6.79117C7.81687 17.5497 8.6436 17.5497 9.29385 17.4623C9.96892 17.3716 10.5373 17.1774 10.9887 16.7259C11.4402 16.2745 11.6343 15.7061 11.7251 15.031C11.8125 14.3808 11.8125 13.5541 11.8125 12.5284V11.696C11.8125 10.6703 11.8125 9.84358 11.7251 9.19333C11.6343 8.51826 11.4402 7.94989 10.9887 7.49845C10.5373 7.04701 9.96892 6.85284 9.29377 6.76207C8.6436 6.67465 7.81687 6.67467 6.79117 6.67468H5.95883Z" fill="white"/>
<path d="M12.9375 11.6299C12.9376 10.6592 12.9376 9.76903 12.8401 9.04348C12.7326 8.24406 12.4797 7.39846 11.7842 6.70295C11.0887 6.00744 10.2431 5.75458 9.4437 5.64711C8.71815 5.54956 7.82797 5.54962 6.85732 5.54968H5.18018C4.95818 5.54968 4.84717 5.54968 4.78042 5.47783C4.71367 5.40597 4.72162 5.29783 4.73752 5.08156C4.7514 4.89378 4.7691 4.71637 4.79168 4.54876C4.88865 3.8291 5.0826 3.23106 5.49615 2.72716C5.6442 2.54677 5.80958 2.38137 5.98995 2.23333C6.5217 1.79697 7.15823 1.6051 7.9314 1.51369C8.68463 1.42467 9.6366 1.42468 10.8383 1.42468H10.9117C12.1134 1.42468 13.0654 1.42467 13.8186 1.51369C14.5918 1.60509 15.2283 1.79697 15.76 2.23333C15.9404 2.38137 16.1058 2.54677 16.2538 2.72716C16.6902 3.25887 16.8821 3.89539 16.9735 4.66862C17.0625 5.42179 17.0625 6.3738 17.0625 7.57549V7.64887C17.0625 8.85058 17.0625 9.80256 16.9735 10.5557C16.8821 11.329 16.6902 11.9655 16.2538 12.4972C16.1058 12.6776 15.9404 12.843 15.76 12.991C15.2561 13.4046 14.6581 13.5985 13.9384 13.6955C13.7708 13.7181 13.5934 13.7358 13.4056 13.7497C13.1893 13.7656 13.0812 13.7735 13.0094 13.7068C12.9375 13.64 12.9375 13.529 12.9375 13.307V11.6299Z" fill="white"/>
</svg>
