<svg width="18" height="18" viewBox="0 0 18 18" fill="none" xmlns="http://www.w3.org/2000/svg">
<path opacity="0.4" d="M2.37892 7.74337C2.63438 7.42893 3.08151 6.87864 3.87271 6.94263C4.141 6.96432 4.39713 7.08154 4.6693 7.2061C4.87383 7.29883 5.18625 7.44075 5.34606 7.57972C5.81322 7.986 5.81277 8.52225 5.81252 8.8323V12.168C5.81277 12.478 5.81322 13.0143 5.34606 13.4206C5.18625 13.5595 4.98591 13.6504 4.78139 13.7431C4.50921 13.8676 4.141 14.0359 3.87271 14.0577C3.08891 14.1211 2.64987 13.5864 2.39194 13.2723C2.32656 13.1929 2.22503 13.074 2.13812 12.9733C1.97921 12.7891 1.79881 12.5801 1.65004 12.3854C1.4043 12.0638 1.15805 11.6785 1.03573 11.2307C0.904755 10.7512 0.904755 10.249 1.03573 9.76957C1.12449 9.44467 1.28509 9.15795 1.49708 8.85697C1.70238 8.56552 2.0369 8.15872 2.37892 7.74337Z" fill="white"/>
<path opacity="0.4" d="M15.6211 7.74337C15.3656 7.42893 14.9186 6.87864 14.1273 6.94263C13.859 6.96432 13.6029 7.08154 13.3307 7.2061C13.1262 7.29883 12.8138 7.44075 12.654 7.57972C12.1868 7.986 12.1873 8.52225 12.1875 8.8323V12.168C12.1873 12.478 12.1868 13.0143 12.654 13.4206C12.8138 13.5595 13.0142 13.6504 13.2186 13.7431C13.4909 13.8676 13.859 14.0359 14.1273 14.0577C14.9111 14.1211 15.3502 13.5864 15.6081 13.2723C15.6734 13.1929 15.775 13.074 15.8619 12.9733C16.0208 12.7891 16.2012 12.5801 16.35 12.3854C16.5957 12.0638 16.842 11.6785 16.9643 11.2307C17.0953 10.7512 17.0953 10.249 16.9643 9.76957C16.8755 9.44467 16.715 9.15795 16.5029 8.85697C16.2977 8.56552 15.9632 8.15872 15.6211 7.74337Z" fill="white"/>
<path d="M3.89583 6.65179C3.89583 4.37146 6.08654 2.36607 9 2.36607C11.9134 2.36607 14.1042 4.37146 14.1042 6.65179V6.94474C14.1118 6.94396 14.1196 6.94325 14.1273 6.94262C14.8612 6.88328 15.299 7.35241 15.5625 7.6716V6.65179C15.5625 3.40927 12.5299 0.9375 9 0.9375C5.47013 0.9375 2.4375 3.40927 2.4375 6.65179V7.67167C2.70096 7.35244 3.13882 6.88328 3.87271 6.94262C3.88043 6.94325 3.88813 6.94396 3.89583 6.94473V6.65179Z" fill="white"/>
<path d="M14.0488 14.0477C14.0758 14.0522 14.1019 14.0556 14.1273 14.0577C14.8663 14.1174 15.2988 13.6455 15.562 13.3281C15.551 14.1773 15.3483 14.8844 14.9462 15.4495C14.5319 16.0319 13.9523 16.3982 13.319 16.629C12.128 17.0628 10.5952 17.0626 9.23535 17.0624H9.15C8.75647 17.0624 8.4375 16.7525 8.4375 16.3701C8.4375 15.9878 8.75647 15.6778 9.15 15.6778C10.6193 15.6778 11.897 15.6683 12.8186 15.3325C13.254 15.1738 13.565 14.956 13.7741 14.6621C13.887 14.5034 13.9836 14.3037 14.0488 14.0477Z" fill="white"/>
</svg>
