<svg width="34" height="34" viewBox="0 0 34 34" fill="none" xmlns="http://www.w3.org/2000/svg">
<g filter="url(#filter0_i_84_84657)">
<path d="M0.5 16.75C0.5 7.49923 7.99923 0 17.25 0C26.5008 0 34 7.49923 34 16.75C34 26.0008 26.5008 33.5 17.25 33.5C7.99923 33.5 0.5 26.0008 0.5 16.75Z" fill="black" fill-opacity="0.1"/>
<path d="M17.25 0.414062C26.272 0.414062 33.5859 7.728 33.5859 16.75C33.5859 25.772 26.272 33.0859 17.25 33.0859C8.228 33.0859 0.914062 25.772 0.914062 16.75C0.914062 7.728 8.228 0.414062 17.25 0.414062Z" stroke="#5D34D6" stroke-width="0.828442"/>
<path d="M23.3362 11.2315C22.1953 10.7097 20.9838 10.3295 19.7191 10.1172C19.5599 10.3914 19.383 10.7628 19.2592 11.0546C17.9141 10.8601 16.5787 10.8601 15.2521 11.0546C15.1283 10.7628 14.9426 10.3914 14.7922 10.1172C13.5188 10.3295 12.3072 10.7097 11.1743 11.2315C8.88378 14.6098 8.26472 17.9085 8.57425 21.163C10.0954 22.2684 11.5634 22.9406 13.0058 23.3828C13.3596 22.9052 13.678 22.3922 13.9521 21.8528C13.4303 21.6582 12.9351 21.4194 12.4575 21.1364C12.5813 21.048 12.7052 20.9508 12.8201 20.8535C15.7032 22.1712 18.8259 22.1712 21.6735 20.8535C21.7974 20.9508 21.9123 21.048 22.0361 21.1364C21.5586 21.4194 21.0634 21.6582 20.5415 21.8528C20.8157 22.3922 21.1341 22.9052 21.4878 23.3828C22.9293 22.9406 24.4063 22.2684 25.9194 21.163C26.2997 17.3956 25.3172 14.1234 23.3362 11.2315ZM14.3501 19.1555C13.4834 19.1555 12.7759 18.3684 12.7759 17.4044C12.7759 16.4405 13.4657 15.6534 14.3501 15.6534C15.2256 15.6534 15.9419 16.4405 15.9242 17.4044C15.9242 18.3684 15.2256 19.1555 14.3501 19.1555ZM20.1613 19.1555C19.2946 19.1555 18.5862 18.3684 18.5862 17.4044C18.5862 16.4405 19.2769 15.6534 20.1613 15.6534C21.0368 15.6534 21.7531 16.4405 21.7354 17.4044C21.7354 18.3684 21.0457 19.1555 20.1613 19.1555Z" fill="white"/>
</g>
<defs>
<filter id="filter0_i_84_84657" x="0.5" y="0" width="33.5" height="33.5" filterUnits="userSpaceOnUse" color-interpolation-filters="sRGB">
<feFlood flood-opacity="0" result="BackgroundImageFix"/>
<feBlend mode="normal" in="SourceGraphic" in2="BackgroundImageFix" result="shape"/>
<feColorMatrix in="SourceAlpha" type="matrix" values="0 0 0 0 0 0 0 0 0 0 0 0 0 0 0 0 0 0 127 0" result="hardAlpha"/>
<feMorphology radius="3.94737" operator="erode" in="SourceAlpha" result="effect1_innerShadow_84_84657"/>
<feOffset/>
<feGaussianBlur stdDeviation="3.94737"/>
<feComposite in2="hardAlpha" operator="arithmetic" k2="-1" k3="1"/>
<feColorMatrix type="matrix" values="0 0 0 0 0.364706 0 0 0 0 0.203922 0 0 0 0 0.839216 0 0 0 0.5 0"/>
<feBlend mode="normal" in2="shape" result="effect1_innerShadow_84_84657"/>
</filter>
</defs>
</svg>
