<svg width="19" height="18" viewBox="0 0 19 18" fill="none" xmlns="http://www.w3.org/2000/svg">
<rect x="0.605225" width="17.9999" height="17.9999" rx="8.99995" fill="#EDEFF0"/>
<g clip-path="url(#clip0_77_50155)">
<path d="M9.61765 11.3378C9.57958 11.3508 9.55787 11.3176 9.53199 11.3024C8.26292 10.5534 6.99526 9.8039 5.72899 9.05388C5.71673 9.04769 5.704 9.04247 5.69092 9.03828V9.02152L5.71338 9.00858C5.74528 9.00021 5.77667 8.99004 5.80742 8.97812L8.79796 7.61744C9.06446 7.49599 9.33097 7.37644 9.59747 7.25613H9.61651C9.61651 7.29421 9.61651 7.32809 9.61651 7.36426C9.61752 8.6889 9.6179 10.0134 9.61765 11.3378Z" fill="#393939"/>
<path d="M9.61962 7.25709H9.60059C9.60059 7.21902 9.60439 7.18095 9.60439 7.14097C9.60439 5.65313 9.60439 4.16515 9.60439 2.67705C9.60002 2.63883 9.6026 2.60014 9.61201 2.56284H9.62C9.77648 2.79393 9.91278 3.03759 10.0567 3.2763C11.1968 5.16746 12.3363 7.05836 13.4752 8.94901C13.4862 8.96766 13.495 8.98708 13.5049 9.00764C13.4726 9.00075 13.4409 8.99146 13.4101 8.97984C13.201 8.88543 12.9913 8.78948 12.7842 8.69316C12.4598 8.54468 12.1353 8.39646 11.8107 8.24848L10.2467 7.53997C10.0384 7.44403 9.82902 7.35075 9.61962 7.25709Z" fill="#343434"/>
<path d="M9.61328 2.56088C9.60387 2.59818 9.60129 2.63688 9.60567 2.6751C9.60567 4.16295 9.60567 5.65092 9.60567 7.13902C9.60567 7.17709 9.60339 7.21516 9.60186 7.25514C9.33536 7.37545 9.06886 7.49499 8.80235 7.61644L5.81181 8.97713C5.78106 8.98904 5.74967 8.99921 5.71777 9.00759C5.8042 8.82789 5.91651 8.66494 6.01892 8.49286C7.20549 6.52048 8.39295 4.54849 9.5813 2.57687C9.58915 2.56595 9.59767 2.55552 9.60681 2.54565L9.61328 2.56088Z" fill="#8C8C8C"/>
<path d="M9.61982 7.25708C9.82922 7.35074 10.0386 7.44401 10.2476 7.53843L11.8116 8.24695C12.1365 8.39467 12.461 8.54289 12.7851 8.69163C12.9938 8.78719 13.2039 8.88389 13.411 8.97831C13.4419 8.98992 13.4736 8.99921 13.5058 9.0061C13.5439 9.05369 13.4875 9.05559 13.4704 9.06587C13.1457 9.26004 12.8194 9.45154 12.4939 9.64418C11.5596 10.197 10.6256 10.7497 9.69178 11.3022C9.66817 11.3159 9.64267 11.3262 9.61792 11.338C9.61792 10.0139 9.61792 8.6896 9.61792 7.3652C9.6183 7.32904 9.61944 7.29325 9.61982 7.25708Z" fill="#141414"/>
<path d="M9.60442 12.09L12.0505 10.6482C12.5175 10.3726 12.9843 10.0967 13.4508 9.82053L13.4931 9.7973C13.4973 9.83537 13.471 9.85555 13.455 9.87763C12.389 11.3805 11.323 12.8828 10.257 14.3846C10.0552 14.6694 9.85379 14.9557 9.65011 15.2381C9.63944 15.253 9.62307 15.3227 9.59033 15.2488C9.61622 15.2267 9.6048 15.197 9.6048 15.1727C9.60505 14.1447 9.60493 13.1172 9.60442 12.09Z" fill="#3D3D3C"/>
<path d="M9.60419 12.0902C9.60419 13.1174 9.60419 14.1443 9.60419 15.171C9.60419 15.1973 9.61561 15.227 9.58972 15.2471C9.53528 15.2144 9.51167 15.1558 9.4755 15.1074C8.23944 13.3663 7.00401 11.6249 5.76921 9.8832C5.7536 9.86112 5.73913 9.83751 5.72314 9.81315C5.75512 9.79449 5.77226 9.82 5.79091 9.83104C7.04094 10.5691 8.29071 11.3078 9.54023 12.0472C9.56345 12.0617 9.58325 12.0765 9.60419 12.0902Z" fill="#8C8C8C"/>
<path d="M9.61383 2.56124L9.60449 2.54684C9.62162 2.53594 9.61928 2.5519 9.62201 2.56007L9.61383 2.56124Z" fill="#393939"/>
</g>
<defs>
<clipPath id="clip0_77_50155">
<rect width="7.82605" height="12.7392" fill="white" transform="translate(5.69214 2.54343)"/>
</clipPath>
</defs>
</svg>
