<svg width="18" height="18" viewBox="0 0 18 18" fill="none" xmlns="http://www.w3.org/2000/svg">
<rect width="17.9999" height="17.9999" rx="8.99995" fill="#EDEFF0"/>
<g clip-path="url(#clip0_126_11253)">
<path d="M9.01242 11.3378C8.97435 11.3507 8.95265 11.3176 8.92676 11.3024C7.6577 10.5534 6.39003 9.80387 5.12377 9.05385C5.1115 9.04766 5.09877 9.04244 5.08569 9.03825V9.02149L5.10816 9.00855C5.14005 9.00017 5.17145 8.99001 5.2022 8.97809L8.19274 7.6174C8.45924 7.49596 8.72574 7.37641 8.99225 7.2561H9.01128C9.01128 7.29418 9.01128 7.32806 9.01128 7.36423C9.0123 8.68887 9.01268 10.0134 9.01242 11.3378Z" fill="#393939"/>
<path d="M9.0144 7.25725H8.99536C8.99536 7.21917 8.99917 7.1811 8.99917 7.14113C8.99917 5.65328 8.99917 4.1653 8.99917 2.6772C8.99479 2.63898 8.99737 2.60029 9.00678 2.56299H9.01478C9.17125 2.79408 9.30755 3.03774 9.45146 3.27645C10.5916 5.16761 11.7311 7.05851 12.8699 8.94916C12.881 8.96781 12.8897 8.98723 12.8996 9.00779C12.8674 9.0009 12.8357 8.99161 12.8048 8.98C12.5958 8.88558 12.386 8.78964 12.1789 8.69331C11.8546 8.54483 11.5301 8.39661 11.2054 8.24864L9.64144 7.54012C9.43319 7.44418 9.22379 7.3509 9.0144 7.25725Z" fill="#343434"/>
<path d="M9.00806 2.56088C8.99865 2.59818 8.99607 2.63688 9.00044 2.6751C9.00044 4.16295 9.00044 5.65092 9.00044 7.13902C9.00044 7.17709 8.99816 7.21516 8.99664 7.25514C8.73013 7.37545 8.46363 7.49499 8.19713 7.61644L5.20659 8.97713C5.17584 8.98904 5.14444 8.99921 5.11255 9.00759C5.19897 8.82789 5.31129 8.66494 5.4137 8.49286C6.60027 6.52048 7.78773 4.54849 8.97608 2.57687C8.98393 2.56595 8.99245 2.55552 9.00159 2.54565L9.00806 2.56088Z" fill="#8C8C8C"/>
<path d="M9.0146 7.25708C9.22399 7.35074 9.43339 7.44401 9.6424 7.53843L11.2064 8.24695C11.5313 8.39467 11.8558 8.54289 12.1799 8.69163C12.3885 8.78719 12.5987 8.88389 12.8058 8.97831C12.8367 8.98992 12.8683 8.99921 12.9006 9.0061C12.9387 9.05369 12.8823 9.05559 12.8652 9.06587C12.5404 9.26004 12.2142 9.45154 11.8886 9.64418C10.9544 10.197 10.0203 10.7497 9.08655 11.3022C9.06295 11.3159 9.03744 11.3262 9.0127 11.338C9.0127 10.0139 9.0127 8.6896 9.0127 7.3652C9.01308 7.32904 9.01422 7.29325 9.0146 7.25708Z" fill="#141414"/>
<path d="M8.99919 12.09L11.4453 10.6483C11.9123 10.3726 12.3791 10.0967 12.8456 9.82059L12.8879 9.79736C12.892 9.83544 12.8658 9.85561 12.8498 9.87769C11.7838 11.3805 10.7178 12.8828 9.65175 14.3846C9.44996 14.6694 9.24856 14.9557 9.04488 15.2382C9.03422 15.2531 9.01785 15.3227 8.98511 15.2489C9.011 15.2268 8.99957 15.1971 8.99957 15.1727C8.99983 14.1448 8.9997 13.1172 8.99919 12.09Z" fill="#3D3D3C"/>
<path d="M8.99896 12.0903C8.99896 13.1175 8.99896 14.1444 8.99896 15.1711C8.99896 15.1974 9.01038 15.2271 8.98449 15.2473C8.93005 15.2145 8.90645 15.1559 8.87028 15.1075C7.63421 13.3664 6.39878 11.625 5.16399 9.88332C5.14838 9.86124 5.13391 9.83763 5.11792 9.81327C5.1499 9.79461 5.16703 9.82012 5.18569 9.83116C6.43571 10.5692 7.68548 11.308 8.935 12.0473C8.95823 12.0618 8.97802 12.0766 8.99896 12.0903Z" fill="#8C8C8C"/>
<path d="M9.00861 2.5613L8.99927 2.5469C9.01639 2.536 9.01406 2.55196 9.01678 2.56013L9.00861 2.5613Z" fill="#393939"/>
</g>
<defs>
<clipPath id="clip0_126_11253">
<rect width="7.82605" height="12.7392" fill="white" transform="translate(5.08691 2.54346)"/>
</clipPath>
</defs>
</svg>
