<svg width="20" height="20" viewBox="0 0 20 20" fill="none" xmlns="http://www.w3.org/2000/svg">
<path fill-rule="evenodd" clip-rule="evenodd" d="M9.99984 1.66663C5.39746 1.66663 1.6665 5.39758 1.6665 9.99996C1.6665 14.6023 5.39746 18.3333 9.99984 18.3333C14.6022 18.3333 18.3332 14.6023 18.3332 9.99996C18.3332 5.39758 14.6022 1.66663 9.99984 1.66663ZM13.1448 8.44438C13.4363 8.08814 13.3838 7.56313 13.0275 7.27168C12.6713 6.98025 12.1463 7.03275 11.8548 7.38895L8.688 11.2596L7.67243 10.244C7.34699 9.91863 6.81935 9.91863 6.49391 10.244C6.16848 10.5695 6.16848 11.0971 6.49391 11.4225L8.16058 13.0892C8.32706 13.2557 8.55617 13.344 8.79134 13.3323C9.0265 13.3205 9.24567 13.2099 9.39484 13.0277L13.1448 8.44438Z" fill="white"/>
</svg>
