<svg width="19" height="18" viewBox="0 0 19 18" fill="none" xmlns="http://www.w3.org/2000/svg">
<path fill-rule="evenodd" clip-rule="evenodd" d="M8.27217 0.969668C8.56504 0.676777 9.03994 0.676777 9.33282 0.969668L11.5828 3.21967C11.8757 3.51257 11.8757 3.98744 11.5828 4.28033L9.33282 6.53033C9.03994 6.82322 8.56504 6.82322 8.27217 6.53033C7.97927 6.23744 7.97927 5.76257 8.27217 5.46967L9.24184 4.5H8.05249C5.56721 4.5 3.55249 6.51472 3.55249 9C3.55249 10.2264 4.04208 11.3369 4.83817 12.1493C5.12808 12.4451 5.12326 12.92 4.82742 13.2099C4.53157 13.4998 4.05672 13.495 3.76681 13.1992C2.70711 12.1178 2.05249 10.6346 2.05249 9C2.05249 5.68629 4.73878 3 8.05249 3H9.24184L8.27217 2.03033C7.97927 1.73744 7.97927 1.26257 8.27217 0.969668ZM14.2776 4.79008C14.5734 4.50017 15.0483 4.50499 15.3381 4.80083C16.3979 5.88224 17.0525 7.36542 17.0525 9C17.0525 12.3137 14.3662 15 11.0525 15H9.86314L10.8328 15.9697C11.1257 16.2626 11.1257 16.7374 10.8328 17.0303C10.5399 17.3232 10.065 17.3232 9.77217 17.0303L7.52216 14.7803C7.22927 14.4874 7.22927 14.0126 7.52216 13.7197L9.77217 11.4697C10.065 11.1768 10.5399 11.1768 10.8328 11.4697C11.1257 11.7626 11.1257 12.2375 10.8328 12.5303L9.86314 13.5H11.0525C13.5378 13.5 15.5525 11.4853 15.5525 9C15.5525 7.7736 15.0629 6.66308 14.2668 5.85068C13.9769 5.55484 13.9817 5.07999 14.2776 4.79008Z" fill="#7243FF"/>
</svg>
