<svg width="18" height="19" viewBox="0 0 18 19" fill="none" xmlns="http://www.w3.org/2000/svg">
<g opacity="0.75">
<path d="M10.4692 4.29467C7.10912 4.68167 4.5 7.53614 4.5 11C4.5 11.6449 4.59045 12.2688 4.75937 12.8595C2.84695 12.0752 1.5 10.1949 1.5 8C1.5 5.10051 3.85051 2.75 6.75 2.75C8.20328 2.75 9.5187 3.3405 10.4692 4.29467Z" fill="white"/>
<path d="M16.5 11C16.5 13.8995 14.1495 16.25 11.25 16.25C8.3505 16.25 6 13.8995 6 11C6 8.1005 8.3505 5.75 11.25 5.75C14.1495 5.75 16.5 8.1005 16.5 11Z" fill="white"/>
</g>
</svg>
