<svg width="20" height="20" viewBox="0 0 20 20" fill="none" xmlns="http://www.w3.org/2000/svg">
<path fill-rule="evenodd" clip-rule="evenodd" d="M10.0001 18.3334C14.6024 18.3334 18.3334 14.6024 18.3334 10.0001C18.3334 5.39771 14.6024 1.66675 10.0001 1.66675C5.39771 1.66675 1.66675 5.39771 1.66675 10.0001C1.66675 14.6024 5.39771 18.3334 10.0001 18.3334ZM7.50008 9.79175C7.03984 9.79175 6.66675 10.1648 6.66675 10.6251C6.66675 11.0853 7.03984 11.4584 7.50008 11.4584H12.5001C12.9603 11.4584 13.3334 11.0853 13.3334 10.6251C13.3334 10.1648 12.9603 9.79175 12.5001 9.79175H7.50008ZM5.41675 7.70841C5.41675 7.24817 5.78985 6.87508 6.25008 6.87508H13.7501C14.2103 6.87508 14.5834 7.24817 14.5834 7.70841C14.5834 8.16866 14.2103 8.54175 13.7501 8.54175H6.25008C5.78985 8.54175 5.41675 8.16866 5.41675 7.70841ZM8.75008 12.7084C8.28984 12.7084 7.91675 13.0815 7.91675 13.5417C7.91675 14.002 8.28984 14.3751 8.75008 14.3751H11.2501C11.7103 14.3751 12.0834 14.002 12.0834 13.5417C12.0834 13.0815 11.7103 12.7084 11.2501 12.7084H8.75008Z" fill="white"/>
</svg>
