<svg width="18" height="18" viewBox="0 0 18 18" fill="none" xmlns="http://www.w3.org/2000/svg">
<path fill-rule="evenodd" clip-rule="evenodd" d="M11.2505 5.25028C11.2505 4.83605 11.5863 4.50024 12.0006 4.50024H15.7508C16.165 4.50024 16.5008 4.83605 16.5008 5.25028V9.00049C16.5008 9.41474 16.165 9.75053 15.7508 9.75053C15.3365 9.75053 15.0007 9.41474 15.0007 9.00049V7.06104L11.7809 10.2809C10.6595 11.4023 8.8414 11.4023 7.72001 10.2809C7.18445 9.74535 6.31612 9.74535 5.78056 10.2809L2.7804 13.281C2.48749 13.5739 2.01259 13.5739 1.71968 13.281C1.42677 12.9882 1.42677 12.5132 1.71968 12.2203L4.71984 9.22018C5.84123 8.09879 7.65933 8.09879 8.78072 9.22018C9.31632 9.7557 10.1846 9.7557 10.7202 9.22018L13.94 6.00033H12.0006C11.5863 6.00033 11.2505 5.66452 11.2505 5.25028Z" fill="white"/>
</svg>
