<svg width="18" height="18" viewBox="0 0 18 18" fill="none" xmlns="http://www.w3.org/2000/svg">
<path fill-rule="evenodd" clip-rule="evenodd" d="M1.5 9C1.5 4.85786 4.85786 1.5 9 1.5C13.1421 1.5 16.5 4.85786 16.5 9C16.5 13.1421 13.1421 16.5 9 16.5C4.85786 16.5 1.5 13.1421 1.5 9ZM9 4.125C9.41422 4.125 9.75 4.46079 9.75 4.875V5.34275C10.353 5.49533 10.8851 5.83093 11.2319 6.31054C11.4746 6.64619 11.3993 7.11506 11.0636 7.35776C10.728 7.6005 10.2591 7.52512 10.0164 7.18946C9.85342 6.96412 9.49005 6.75 9 6.75H8.79165C8.12055 6.75 7.875 7.15869 7.875 7.33333V7.39058C7.875 7.53855 7.98683 7.78695 8.36438 7.938L10.1927 8.66933C10.9929 8.98935 11.625 9.70395 11.625 10.6094C11.625 11.7142 10.7422 12.4608 9.75 12.6818V13.125C9.75 13.5392 9.41422 13.875 9 13.875C8.58578 13.875 8.25 13.5392 8.25 13.125V12.6572C7.647 12.5047 7.11487 12.1691 6.76808 11.6895C6.52537 11.3538 6.60072 10.885 6.93638 10.6423C7.27204 10.3995 7.7409 10.4749 7.9836 10.8105C8.14658 11.0359 8.50995 11.25 9 11.25H9.1368C9.84735 11.25 10.125 10.8157 10.125 10.6094C10.125 10.4614 10.0132 10.2131 9.63562 10.062L7.80735 9.33067C7.00712 9.01065 6.375 8.29605 6.375 7.39058V7.33333C6.375 6.23533 7.26702 5.50428 8.25 5.30498V4.875C8.25 4.46079 8.58578 4.125 9 4.125Z" fill="white"/>
</svg>
