<svg width="18" height="18" viewBox="0 0 18 18" fill="none" xmlns="http://www.w3.org/2000/svg">
<path fill-rule="evenodd" clip-rule="evenodd" d="M4.84863 6.84127C6.3131 5.3768 8.68745 5.3768 10.1519 6.84127L10.4093 7.09863C11.0215 7.71083 11.3784 8.48408 11.4784 9.28208C11.5299 9.69308 11.2385 10.068 10.8275 10.1195C10.4165 10.171 10.0416 9.87953 9.99005 9.46853C9.93005 8.98965 9.71682 8.5275 9.34865 8.15933L9.09125 7.90193C8.21262 7.02325 6.78797 7.02325 5.90929 7.90193L3.40193 10.4093C2.52325 11.288 2.52325 12.7126 3.40193 13.5913L3.65929 13.8486C4.53797 14.7273 5.96259 14.7273 6.84127 13.8486L6.96993 13.72C7.26281 13.427 7.73765 13.427 8.0306 13.7199C8.32347 14.0128 8.32347 14.4877 8.0306 14.7806L7.90197 14.9093C6.43749 16.3737 4.06309 16.3738 2.59863 14.9093L2.34127 14.6519C0.876807 13.1875 0.876799 10.8131 2.34127 9.3486L4.84863 6.84127Z" fill="white"/>
<path fill-rule="evenodd" clip-rule="evenodd" d="M10.098 3.84127C11.5625 2.3768 13.9369 2.3768 15.4013 3.84127L15.6587 4.09863C17.1232 5.5631 17.1232 7.93748 15.6587 9.40193L13.1513 11.9093C11.6869 13.3738 9.31247 13.3738 7.84802 11.9093L7.59069 11.6519C6.97846 11.0397 6.62149 10.2665 6.52152 9.46853C6.47003 9.05753 6.76148 8.6826 7.17248 8.63108C7.58349 8.57963 7.95842 8.87108 8.00987 9.28208C8.06987 9.76095 8.28309 10.223 8.65134 10.5913L8.90867 10.8486C9.78737 11.7273 11.212 11.7273 12.0907 10.8486L14.598 8.34128C15.4767 7.46259 15.4767 6.03797 14.598 5.15929L14.3407 4.90193C13.462 4.02327 12.0374 4.02325 11.1587 4.90186C11.1588 4.90184 11.1587 4.90188 11.1587 4.90186L11.0301 5.03054C10.7372 5.32347 10.2624 5.32353 9.96947 5.03068C9.67652 4.73782 9.67644 4.26295 9.96932 3.97001L10.098 3.84127Z" fill="white"/>
</svg>
