<svg width="18" height="18" viewBox="0 0 18 18" fill="none" xmlns="http://www.w3.org/2000/svg">
<path fill-rule="evenodd" clip-rule="evenodd" d="M3.14202 3.14215C3.58139 2.70278 4.29373 2.70278 4.7331 3.14215L9.00034 7.40938L13.2675 3.14215C13.7069 2.70278 14.4193 2.70278 14.8587 3.14215C15.298 3.58151 15.298 4.29386 14.8587 4.73322L10.5914 9.00046L14.8587 13.2677C15.298 13.707 15.298 14.4194 14.8587 14.8588C14.4193 15.2981 13.7069 15.2981 13.2675 14.8588L9.00034 10.5915L4.7331 14.8588C4.29373 15.2981 3.58139 15.2981 3.14202 14.8588C2.70266 14.4194 2.70266 13.707 3.14202 13.2677L7.40926 9.00046L3.14202 4.73322C2.70266 4.29386 2.70266 3.58151 3.14202 3.14215Z" fill="white"/>
</svg>
