<svg width="38" height="38" viewBox="0 0 38 38" fill="none" xmlns="http://www.w3.org/2000/svg">
<path d="M19 0.5C29.2173 0.5 37.5 8.78273 37.5 19C37.5 29.2173 29.2173 37.5 19 37.5C8.78273 37.5 0.5 29.2173 0.5 19C0.5 8.78273 8.78273 0.5 19 0.5Z" fill="black" fill-opacity="0.1"/>
<path d="M19 0.5C29.2173 0.5 37.5 8.78273 37.5 19C37.5 29.2173 29.2173 37.5 19 37.5C8.78273 37.5 0.5 29.2173 0.5 19C0.5 8.78273 8.78273 0.5 19 0.5Z" stroke="#5D34D6"/>
<path fill-rule="evenodd" clip-rule="evenodd" d="M27.4402 13.3293C27.4402 13.8471 27.0204 14.2668 26.5027 14.2668L20.8749 14.2668C20.3572 14.2668 19.9374 13.8471 19.9374 13.3293C19.9374 12.8115 20.3572 12.3918 20.8749 12.3918L26.5027 12.3918C27.0204 12.3918 27.4402 12.8115 27.4402 13.3293ZM27.4402 18.9998C27.4402 19.5176 27.0204 19.9373 26.5027 19.9373L22.7509 19.9373L22.7509 20.8328C22.7509 21.3505 22.3311 21.7703 21.8134 21.7703C21.2956 21.7703 20.8759 21.3505 20.8759 20.8328L20.8759 19.0151C20.8758 19.01 20.8757 19.005 20.8757 18.9998C20.8757 18.9948 20.8758 18.9897 20.8759 18.9845L20.8759 17.1668C20.8759 16.6491 21.2956 16.2293 21.8134 16.2293C22.3311 16.2293 22.7509 16.6491 22.7509 17.1668L22.7509 18.0623L26.5027 18.0623C27.0204 18.0623 27.4402 18.4821 27.4402 18.9998ZM27.4402 24.6704C27.4402 25.1882 27.0204 25.6079 26.5027 25.6079L18.9992 25.6079C18.4814 25.6079 18.0617 25.1882 18.0617 24.6704C18.0617 24.1526 18.4814 23.7329 18.9992 23.7329L26.5027 23.7329C27.0204 23.7329 27.4402 24.1526 27.4402 24.6704ZM18.9995 18.9998C18.9995 19.5176 18.5798 19.9373 18.062 19.9373L11.4964 19.9373C10.9786 19.9373 10.5589 19.5176 10.5589 18.9998C10.5589 18.482 10.9786 18.0623 11.4964 18.0623L18.062 18.0623C18.5798 18.0623 18.9995 18.482 18.9995 18.9998ZM17.1235 10.5588C17.6413 10.5588 18.061 10.9786 18.061 11.4963L18.061 15.1623C18.061 15.68 17.6413 16.0998 17.1235 16.0998C16.6058 16.0998 16.186 15.68 16.186 15.1623L16.186 14.2668L11.4962 14.2668C10.9785 14.2668 10.5587 13.8471 10.5587 13.3293C10.5587 12.8115 10.9785 12.3918 11.4962 12.3918L16.186 12.3918L16.186 11.4963C16.186 10.9786 16.6058 10.5588 17.1235 10.5588ZM15.2481 21.8999C15.7658 21.8999 16.1856 22.3196 16.1856 22.8374L16.1856 26.5033C16.1856 27.0211 15.7658 27.4408 15.2481 27.4408C14.7304 27.4408 14.3106 27.0211 14.3106 26.5033L14.3106 25.6079L11.4966 25.6079C10.9788 25.6079 10.5591 25.1882 10.5591 24.6704C10.5591 24.1526 10.9788 23.7329 11.4966 23.7329L14.3106 23.7329L14.3106 22.8374C14.3106 22.3196 14.7304 21.8999 15.2481 21.8999Z" fill="white"/>
</svg>
