<svg width="18" height="19" viewBox="0 0 18 19" fill="none" xmlns="http://www.w3.org/2000/svg">
<path fill-rule="evenodd" clip-rule="evenodd" d="M2.25 5.75C2.25 4.09314 3.59314 2.75 5.25 2.75H8.25C9.90683 2.75 11.25 4.09314 11.25 5.75V7.25C12.9068 7.25 14.25 8.59317 14.25 10.25V12.125C14.25 12.3321 14.4179 12.5 14.625 12.5C14.8321 12.5 15 12.3321 15 12.125V7.43198C15 7.03416 14.842 6.65263 14.5606 6.37132L13.7197 5.53033C13.4268 5.23743 13.4268 4.76257 13.7197 4.46967C14.0126 4.17678 14.4874 4.17678 14.7803 4.46967L15.6213 5.31066C16.1839 5.87327 16.5 6.63633 16.5 7.43198V12.125C16.5 13.1605 15.6605 14 14.625 14C13.5895 14 12.75 13.1605 12.75 12.125V10.25C12.75 9.42155 12.0785 8.75 11.25 8.75V14.75C11.6642 14.75 12 15.0858 12 15.5C12 15.9142 11.6642 16.25 11.25 16.25H2.25C1.83579 16.25 1.5 15.9142 1.5 15.5C1.5 15.0858 1.83579 14.75 2.25 14.75V5.75ZM4.5 8C4.5 7.58579 4.83579 7.25 5.25 7.25H8.25C8.66423 7.25 9 7.58579 9 8C9 8.41423 8.66423 8.75 8.25 8.75H5.25C4.83579 8.75 4.5 8.41423 4.5 8Z" fill="white"/>
</svg>
