<svg width="16" height="16" viewBox="0 0 16 16" fill="none" xmlns="http://www.w3.org/2000/svg">
<path d="M8 -3.49691e-07C9.62279 -4.20626e-07 11.2072 0.493521 12.543 1.41506C13.8787 2.3366 14.9026 3.64257 15.4788 5.15964C16.055 6.67671 16.1561 8.33313 15.7689 9.90904C15.3816 11.485 14.5243 12.9058 13.3106 13.9831C12.0969 15.0603 10.5844 15.743 8.97363 15.9405C7.3629 16.138 5.73019 15.841 4.29222 15.0889C2.85424 14.3368 1.679 13.1651 0.922484 11.7294C0.165968 10.2938 -0.136046 8.66198 0.0565279 7.05065L2.0424 7.28799C1.89797 8.49649 2.12448 9.72033 2.69186 10.7971C3.25925 11.8738 4.14068 12.7526 5.21916 13.3167C6.29765 13.8808 7.52218 14.1035 8.73023 13.9554C9.93827 13.8073 11.0727 13.2953 11.983 12.4873C12.8932 11.6794 13.5362 10.6137 13.8267 9.43178C14.1171 8.24985 14.0412 7.00753 13.6091 5.86973C13.177 4.73193 12.409 3.75245 11.4072 3.06129C10.4054 2.37014 9.2171 2 8 2L8 -3.49691e-07Z" fill="#94A3B8"/>
<path opacity="0.25" d="M8 -3.49691e-07C12.4183 -5.4282e-07 16 3.58172 16 8C16 12.4183 12.4183 16 8 16C3.58172 16 -1.56562e-07 12.4183 -3.49691e-07 8C-5.4282e-07 3.58172 3.58172 -1.56562e-07 8 -3.49691e-07ZM8 14C11.3137 14 14 11.3137 14 8C14 4.68629 11.3137 2 8 2C4.68629 2 2 4.68629 2 8C2 11.3137 4.68629 14 8 14Z" fill="#94A3B8"/>
</svg>
