<svg width="19" height="18" viewBox="0 0 19 18" fill="none" xmlns="http://www.w3.org/2000/svg">
<path d="M10.2252 1.79185C9.5932 1.57459 8.9068 1.57459 8.27478 1.79185L4.01857 3.25491C3.11002 3.56722 2.5 4.42197 2.5 5.3827V8.93392C2.5 11.039 3.36168 12.556 4.60938 13.7372C5.7887 14.8537 7.33363 15.6868 8.77608 16.4647L8.8939 16.5282C9.11613 16.6481 9.38387 16.6481 9.6061 16.5282L9.72392 16.4647C11.1664 15.6868 12.7113 14.8537 13.8906 13.7372C15.1383 12.556 16 11.039 16 8.93392V5.3827C16 4.42197 15.39 3.56722 14.4814 3.25491L10.2252 1.79185Z" fill="white"/>
</svg>
