<svg width="18" height="18" viewBox="0 0 18 18" fill="none" xmlns="http://www.w3.org/2000/svg">
<path opacity="0.4" d="M6.80999 2.09004C8.27475 2.05324 9.72525 2.05324 11.19 2.09004L11.2336 2.09114C12.3772 2.11985 13.2975 2.14296 14.035 2.27141C14.8071 2.40587 15.4346 2.66378 15.9648 3.19595C16.4927 3.72588 16.7493 4.3444 16.8811 5.10401C17.0068 5.82728 17.0259 6.72506 17.0496 7.83716L17.0506 7.88126C17.0665 8.62849 17.0665 9.37136 17.0506 10.1187L17.0496 10.1627C17.0259 11.2749 17.0068 12.1726 16.8811 12.8959C16.7493 13.6555 16.4927 14.274 15.9648 14.8039C15.4346 15.3361 14.8071 15.594 14.035 15.7285C13.2975 15.8569 12.3772 15.88 11.2336 15.9087L11.19 15.9099C9.72525 15.9466 8.27475 15.9466 6.80999 15.9099L6.76633 15.9087C5.62273 15.88 4.70251 15.8569 3.96502 15.7285C3.1929 15.594 2.56536 15.3361 2.03521 14.8039C1.50729 14.274 1.25073 13.6555 1.11882 12.8959C0.993217 12.1726 0.974092 11.2749 0.950392 10.1627L0.949454 10.1187C0.933517 9.37136 0.933517 8.62849 0.949447 7.88126L0.950392 7.83716C0.974084 6.72504 0.993217 5.82727 1.11882 5.10399C1.25073 4.34438 1.50728 3.72587 2.03521 3.19593C2.56536 2.66377 3.1929 2.40586 3.96502 2.27139C4.70251 2.14295 5.62275 2.11985 6.76636 2.09114L6.80999 2.09004Z" fill="white"/>
<path d="M4.60452 5.99336C4.81533 5.6368 5.27526 5.51864 5.63182 5.72945L7.83836 7.03403C8.46858 7.40666 8.76731 7.50006 9.00011 7.50006C9.23291 7.50006 9.53163 7.40666 10.1619 7.03403L12.3684 5.72945C12.725 5.51864 13.1849 5.6368 13.3957 5.99336C13.6065 6.34991 13.4884 6.80985 13.1319 7.02066L10.9253 8.32521C10.2687 8.71349 9.66731 9.00006 9.00011 9.00006C8.33291 9.00006 7.73156 8.71349 7.07493 8.32521L4.86841 7.02066C4.51185 6.80985 4.39371 6.34991 4.60452 5.99336Z" fill="white"/>
</svg>
