<svg width="163" height="38" viewBox="0 0 163 38" fill="none" xmlns="http://www.w3.org/2000/svg">
<path d="M20.6768 3.18787C21.4357 3.18787 22.0512 3.8033 22.0512 4.56224V8.19318C22.0426 8.13108 22.0512 8.25763 22.0512 8.19318C21.9349 8.7369 21.4547 9.35995 20.4146 9.36006V9.37293H17.07C16.4059 9.37293 15.8677 9.91115 15.8677 10.5752V14.2134C15.8174 14.7821 15.4529 15.5564 14.236 15.5564H10.8865C10.2226 15.5564 9.68366 16.0948 9.68346 16.7587V20.5384C9.68366 21.2023 10.2226 21.7406 10.8865 21.7406H14.6646L14.7901 21.7503C15.4009 21.8491 15.7603 22.6532 15.8677 23.029V26.7218C15.8677 27.3859 16.4059 27.9241 17.07 27.9241H20.8489C21.513 27.9241 22.0512 27.3859 22.0512 26.7218V22.9429C22.0512 22.8984 22.0487 22.8543 22.0439 22.811C22.2441 22.3844 22.7043 21.7914 23.2824 21.7913V21.7398H27.0324C27.6963 21.7398 28.2345 21.2015 28.2346 20.5376V16.7587C28.2346 16.0946 27.6964 15.5556 27.0324 15.5556H23.2534C22.5894 15.5556 22.0512 16.0946 22.0512 16.7587V20.5376C22.0512 20.5676 22.053 20.5973 22.0552 20.6268C21.9642 21.0557 21.6523 21.5557 20.9559 21.7455C20.9206 21.7424 20.8849 21.7406 20.8489 21.7406H17.07C17.0143 21.7406 16.9596 21.7446 16.9059 21.7519C16.1574 21.5454 15.9087 20.9468 15.8677 20.4837V16.7587L15.924 16.5914C16.0752 16.1997 16.4156 15.643 16.9445 15.5652L17.07 15.5564H20.8489C21.513 15.5564 22.0512 15.0182 22.0512 14.3541V10.5752C22.0512 10.5348 22.0494 10.4948 22.0455 10.4554C22.1882 10.0471 22.5307 9.43443 23.0741 9.3673C23.1067 9.36995 23.1398 9.37293 23.173 9.37293H26.8924C27.6368 9.38968 28.2354 9.99735 28.2354 10.7457V14.1812C28.2354 14.9401 28.8502 15.5554 29.609 15.5556H33.0445C33.8035 15.5556 34.4189 16.171 34.4189 16.93V20.3647C34.4189 21.1236 33.8035 21.739 33.0445 21.739H29.609C28.8502 21.7392 28.2354 22.3546 28.2354 23.1134V26.5489C28.2354 27.3078 27.6199 27.9232 26.8611 27.9233H23.4255C22.6667 27.9233 22.0513 28.5381 22.0512 29.2969V32.7324C22.0512 33.4913 21.4357 34.1068 20.6768 34.1068H17.2421C16.4832 34.1068 15.8677 33.4913 15.8677 32.7324V29.2969C15.8676 28.5381 15.2522 27.9233 14.4933 27.9233H11.0578C10.299 27.9232 9.68353 27.3078 9.68346 26.5489V23.1134C9.68346 22.3546 9.06869 21.7392 8.30989 21.739H4.87437C4.11544 21.739 3.5 21.1236 3.5 20.3647V16.93C3.5 16.171 4.11544 15.5556 4.87437 15.5556H8.30989C9.06869 15.5554 9.68346 14.9401 9.68346 14.1812V10.7457C9.68352 9.98685 10.299 9.37139 11.0578 9.37132H14.4933C15.2522 9.37132 15.8676 8.75656 15.8677 7.99776V4.56224C15.8677 3.8033 16.4832 3.18787 17.2421 3.18787H20.6768Z" fill="url(#paint0_linear_77_50040)"/>
<path d="M48.7638 28.852C44.1489 28.852 39.5339 25.3345 39.5339 18.7779C39.5339 12.1932 44.3459 8.70381 48.792 8.70381H50.3959C54.8702 8.70381 58.1344 11.9962 58.5565 16.1327H54.7857C54.5043 13.9941 52.7034 12.0525 50.4522 12.0525H48.8201C46.2031 12.0525 43.5017 14.5006 43.5017 18.7779C43.5017 23.027 46.0624 25.5033 48.7357 25.5033H50.3678C52.7034 25.5033 54.4762 23.6742 54.7857 21.423H58.5565C58.1907 25.7566 54.2792 28.852 50.3396 28.852H48.7638Z" fill="white"/>
<path d="M66.5267 28.852C62.6152 28.852 59.6605 25.7566 59.6605 21.5356C59.6605 17.2865 62.6152 14.2192 66.4985 14.2192H67.7085C71.62 14.2192 74.5465 17.2865 74.5465 21.5356C74.5465 25.7847 71.62 28.852 67.7367 28.852H66.5267ZM67.6241 25.7284C69.4532 25.7284 70.8883 23.8993 70.8883 21.5356C70.8883 19.1718 69.4532 17.3427 67.6241 17.3427H66.6111C64.7538 17.3427 63.3187 19.1156 63.3187 21.5356C63.3187 23.9556 64.7538 25.7284 66.6111 25.7284H67.6241Z" fill="white"/>
<path d="M80.82 34.3674C77.1055 34.3674 75.0231 32.7353 75.0231 30.3715C75.0231 29.3585 75.4734 28.458 76.1769 27.7826C76.5146 27.445 76.5146 27.2198 76.1769 26.854C75.8111 26.4319 75.5297 25.8973 75.5297 25.25C75.5297 24.237 76.2894 23.3365 77.4995 22.9144C77.9215 22.7456 77.9778 22.5205 77.6401 22.1828C76.7678 21.3667 76.3457 20.2974 76.3457 19.1437C76.3457 16.189 78.822 14.2192 81.8893 14.2192H82.9304C84.1686 14.2192 85.1254 14.4443 86.7575 14.4443H90.1343V16.9206H88.6428C88.0519 16.9206 87.8549 17.2302 88.1082 17.7367C88.3896 18.2432 88.5303 18.7779 88.5303 19.3125C88.5303 22.0421 85.9696 24.0963 82.9867 24.0963H80.1165C79.4974 24.0963 79.019 24.4059 79.019 24.9405C79.019 25.447 79.4692 25.7847 80.229 25.7847H85.1254C88.1645 25.7847 90.1624 27.4731 90.1624 29.8931C90.1624 32.5946 87.6298 34.3674 84.2812 34.3674H80.82ZM84.6188 31.5252C85.857 31.5252 86.6168 30.9343 86.6168 29.9775C86.6168 29.1334 85.9133 28.5424 84.6751 28.5424H80.6793C78.9346 28.5424 78.5688 29.3866 78.5688 30.0338C78.5688 30.878 79.2441 31.5252 80.6793 31.5252H84.6188ZM82.9023 21.2823C84.2249 21.2823 85.0409 20.2693 85.0409 19.1437C85.0409 18.0462 84.2249 17.0332 82.9023 17.0332H81.9455C80.9325 17.0332 79.8069 17.8211 79.8069 19.1437C79.8069 20.4944 80.9044 21.2823 81.9174 21.2823H82.9023Z" fill="white"/>
<path d="M100.023 14.2192C103.71 14.2192 106.608 17.3709 106.608 21.5356C106.608 25.7003 103.71 28.852 100.023 28.852H99.2637C98.2788 28.852 97.1813 28.4299 96.3653 27.8389C95.718 27.4731 95.2959 27.6701 95.2959 28.261V34.3674H91.6659V14.4443H95.2959V14.9509C95.2959 15.4011 95.7462 15.5981 96.3653 15.2041C97.2376 14.585 98.335 14.2192 99.2918 14.2192H100.023ZM98.4757 17.3427C96.5904 17.3427 95.0427 19.0874 95.0427 21.5356C95.0427 23.9838 96.5904 25.7284 98.4757 25.7284H99.5169C101.318 25.7284 102.922 23.9838 102.922 21.5356C102.922 19.0874 101.318 17.3427 99.5169 17.3427H98.4757Z" fill="white"/>
<path d="M108.443 28.6268V14.4443H112.073V28.6268H108.443ZM108.331 8.92893H112.214V12.1931H108.331V8.92893Z" fill="white"/>
<path d="M118.495 22.3235C117.904 22.3235 117.623 22.6893 117.792 23.1958C118.129 24.6591 119.199 25.841 120.746 25.841H121.9C123.279 25.841 124.404 24.9405 124.601 23.8431H128.063C127.753 26.7977 125.08 28.852 121.844 28.852H120.718C116.835 28.852 113.936 25.7847 113.936 21.5074C113.936 16.8925 117.426 14.2192 120.662 14.2192H121.844C125.502 14.2192 128.203 17.2583 128.203 21.0853C128.203 21.7326 128.147 22.1828 128.147 22.3235H118.495ZM118.129 18.8342C117.82 19.3407 118.073 19.7628 118.664 19.7628H123.757C124.32 19.7628 124.63 19.3688 124.404 18.8623C124.01 17.793 122.997 17.0332 121.844 17.0332H120.718C119.677 17.0332 118.664 17.6241 118.129 18.8342Z" fill="white"/>
<path d="M136.234 28.852C131.957 28.852 129.34 25.5877 129.34 21.5356C129.34 17.4553 132.013 14.2192 136.29 14.2192H137.303C140.708 14.2192 143.353 16.5267 143.578 20.0442H140.005C139.836 18.5528 138.823 17.3427 137.275 17.3427H136.29C134.152 17.3427 132.998 19.2844 132.998 21.5356C132.998 23.8149 134.152 25.7284 136.234 25.7284H137.219C138.767 25.7284 139.723 24.5747 140.033 23.0833H143.635C143.213 26.3475 140.821 28.852 137.219 28.852H136.234Z" fill="white"/>
<path d="M149.192 22.3235C148.601 22.3235 148.319 22.6893 148.488 23.1958C148.826 24.6591 149.895 25.841 151.443 25.841H152.597C153.975 25.841 155.101 24.9405 155.298 23.8431H158.759C158.45 26.7977 155.776 28.852 152.54 28.852H151.415C147.531 28.852 144.633 25.7847 144.633 21.5074C144.633 16.8925 148.122 14.2192 151.358 14.2192H152.54C156.199 14.2192 158.9 17.2583 158.9 21.0853C158.9 21.7326 158.844 22.1828 158.844 22.3235H149.192ZM148.826 18.8342C148.516 19.3407 148.77 19.7628 149.361 19.7628H154.454C155.017 19.7628 155.326 19.3688 155.101 18.8623C154.707 17.793 153.694 17.0332 152.54 17.0332H151.415C150.374 17.0332 149.361 17.6241 148.826 18.8342Z" fill="white"/>
<defs>
<linearGradient id="paint0_linear_77_50040" x1="18.9594" y1="3.18787" x2="18.9594" y2="34.1068" gradientUnits="userSpaceOnUse">
<stop stop-color="white"/>
<stop offset="1" stop-color="#5D34D6"/>
</linearGradient>
</defs>
</svg>
