<svg width="39" height="38" viewBox="0 0 39 38" fill="none" xmlns="http://www.w3.org/2000/svg">
<g filter="url(#filter0_i_87_117111)">
<path d="M0.75 18.75C0.75 8.39466 9.14466 0 19.5 0C29.8553 0 38.25 8.39466 38.25 18.75C38.25 29.1053 29.8553 37.5 19.5 37.5C9.14466 37.5 0.75 29.1053 0.75 18.75Z" fill="black" fill-opacity="0.1"/>
<path d="M19.5 0.5C29.5792 0.5 37.75 8.6708 37.75 18.75C37.75 28.8292 29.5792 37 19.5 37C9.4208 37 1.25 28.8292 1.25 18.75C1.25 8.6708 9.4208 0.5 19.5 0.5Z" stroke="white" stroke-opacity="0.25"/>
<path d="M26.0625 15.0002C26.5803 15.0002 27 15.4199 27 15.9377C27 16.4555 26.5803 16.8752 26.0625 16.8752L14.5683 16.875C14.1263 16.8751 13.6915 16.8752 13.3553 16.8228C13.0352 16.7728 12.3749 16.6141 12.0986 15.8781C11.8266 15.1532 12.1834 14.5432 12.3743 14.2632C12.5767 13.9662 12.8826 13.6287 13.1963 13.2828L13.8083 12.6074C14.1298 12.2525 14.4417 11.908 14.7164 11.6796C14.9703 11.4684 15.5442 11.0539 16.233 11.3574C16.9218 11.661 17.0634 12.3909 17.1081 12.7337C17.1564 13.1045 17.1563 13.5864 17.1562 14.0829L17.1562 15.0002L26.0625 15.0002Z" fill="white"/>
<path opacity="0.4" d="M12.9375 22.4998C12.4197 22.4998 12 22.0801 12 21.5623C12 21.0445 12.4197 20.6248 12.9375 20.6248L24.4317 20.625C24.8738 20.6249 25.3086 20.6248 25.6447 20.6772C25.9648 20.7272 26.6251 20.8859 26.9014 21.6219C27.1734 22.3467 26.8166 22.9567 26.6258 23.2368C26.4233 23.5338 26.1174 23.8713 25.8038 24.2172L25.1917 24.8926C24.8702 25.2475 24.5583 25.5919 24.2836 25.8204C24.0297 26.0315 23.4559 26.4461 22.767 26.1425C22.0782 25.839 21.9366 25.109 21.8919 24.7663C21.8436 24.3955 21.8437 23.9136 21.8438 23.417V22.4998H12.9375Z" fill="white"/>
</g>
<defs>
<filter id="filter0_i_87_117111" x="0.75" y="0" width="37.5" height="37.5" filterUnits="userSpaceOnUse" color-interpolation-filters="sRGB">
<feFlood flood-opacity="0" result="BackgroundImageFix"/>
<feBlend mode="normal" in="SourceGraphic" in2="BackgroundImageFix" result="shape"/>
<feColorMatrix in="SourceAlpha" type="matrix" values="0 0 0 0 0 0 0 0 0 0 0 0 0 0 0 0 0 0 127 0" result="hardAlpha"/>
<feMorphology radius="5" operator="erode" in="SourceAlpha" result="effect1_innerShadow_87_117111"/>
<feOffset/>
<feGaussianBlur stdDeviation="5"/>
<feComposite in2="hardAlpha" operator="arithmetic" k2="-1" k3="1"/>
<feColorMatrix type="matrix" values="0 0 0 0 1 0 0 0 0 1 0 0 0 0 1 0 0 0 0.1 0"/>
<feBlend mode="normal" in2="shape" result="effect1_innerShadow_87_117111"/>
</filter>
</defs>
</svg>
