<svg width="18" height="19" viewBox="0 0 18 19" fill="none" xmlns="http://www.w3.org/2000/svg">
<path opacity="0.4" d="M9.0429 1.79968C10.6859 1.79968 11.9765 1.79967 12.984 1.93513C14.0165 2.07394 14.8357 2.36422 15.4793 3.00787C16.123 3.65152 16.4132 4.47071 16.5521 5.5032C16.6875 6.51076 16.6875 7.88703 16.6875 9.53008C16.6875 11.1731 16.6875 12.4636 16.5521 13.4712C16.4132 14.5036 16.123 15.3229 15.4793 15.9665C14.8357 16.6102 14.0165 16.9004 12.984 17.0392C11.9765 17.1747 10.6859 17.1747 9.0429 17.1747C7.39985 17.1747 6.02358 17.1747 5.01602 17.0392C3.98353 16.9004 3.16433 16.6102 2.52068 15.9665C1.87704 15.3229 1.58676 14.5036 1.44794 13.4712C1.31249 12.4636 1.31249 11.1731 1.3125 9.53008C1.31249 7.88704 1.31249 6.51076 1.44794 5.5032C1.58676 4.47071 1.87704 3.65152 2.52068 3.00787C3.16433 2.36422 3.98353 2.07394 5.01602 1.93513C6.02358 1.79967 7.39985 1.79968 9.0429 1.79968Z" fill="white"/>
<path fill-rule="evenodd" clip-rule="evenodd" d="M4.125 5.73718C4.125 5.32297 4.46079 4.98718 4.875 4.98718H5.625C6.03922 4.98718 6.375 5.32297 6.375 5.73718C6.375 6.1514 6.03921 6.48718 5.625 6.48718H4.875C4.46078 6.48718 4.125 6.15139 4.125 5.73718ZM7.875 5.73718C7.875 5.32297 8.21078 4.98718 8.625 4.98718H13.125C13.5392 4.98718 13.875 5.32297 13.875 5.73718C13.875 6.1514 13.5392 6.48718 13.125 6.48718H8.625C8.21078 6.48718 7.875 6.15139 7.875 5.73718ZM4.125 9.48718C4.125 9.07296 4.46079 8.73718 4.875 8.73718H5.625C6.03922 8.73718 6.375 9.07296 6.375 9.48718C6.375 9.90141 6.03921 10.2372 5.625 10.2372H4.875C4.46078 10.2372 4.125 9.90141 4.125 9.48718ZM7.875 9.48718C7.875 9.07296 8.21078 8.73718 8.625 8.73718H13.125C13.5392 8.73718 13.875 9.07296 13.875 9.48718C13.875 9.90141 13.5392 10.2372 13.125 10.2372H8.625C8.21078 10.2372 7.875 9.90141 7.875 9.48718ZM4.125 13.2372C4.125 12.823 4.46079 12.4872 4.875 12.4872H5.625C6.03921 12.4872 6.375 12.823 6.375 13.2372C6.375 13.6514 6.03921 13.9872 5.625 13.9872H4.875C4.46079 13.9872 4.125 13.6514 4.125 13.2372ZM7.875 13.2372C7.875 12.823 8.21078 12.4872 8.625 12.4872H13.125C13.5392 12.4872 13.875 12.823 13.875 13.2372C13.875 13.6514 13.5392 13.9872 13.125 13.9872H8.625C8.21078 13.9872 7.875 13.6514 7.875 13.2372Z" fill="white"/>
</svg>
