<svg width="18" height="18" viewBox="0 0 18 18" fill="none" xmlns="http://www.w3.org/2000/svg">
<path opacity="0.4" d="M8.80043 3.1875H7.45819C6.25625 3.18749 5.29703 3.18748 4.54471 3.28862C3.76751 3.39311 3.12746 3.61475 2.6211 4.1211C2.11475 4.62746 1.89311 5.26751 1.78862 6.04471C1.68748 6.79703 1.68749 7.75628 1.6875 8.95815L1.68755 10.5418C1.68753 11.7437 1.68752 12.703 1.78867 13.4553C1.89316 14.2325 2.11479 14.8726 2.62115 15.3789C3.1275 15.8852 3.76756 16.1069 4.54475 16.2114C5.29707 16.3125 6.25629 16.3125 7.45824 16.3125H9.04185C10.2438 16.3125 11.2031 16.3125 11.9553 16.2114C12.7325 16.1069 13.3726 15.8852 13.879 15.3789C14.3853 14.8726 14.6069 14.2325 14.7114 13.4553C14.8126 12.703 14.8126 11.7437 14.8126 10.5418L14.8125 9.19958C14.2568 8.9235 13.875 8.35013 13.875 7.6875V6.51151L9.63075 10.7558C8.97173 11.4148 7.90328 11.4148 7.24426 10.7558C6.58525 10.0967 6.58525 9.02828 7.24426 8.36925L11.4885 4.12502H10.3125C9.64995 4.12502 9.0765 3.74315 8.80043 3.1875Z" fill="white"/>
<path fill-rule="evenodd" clip-rule="evenodd" d="M13.7506 3.18871C13.6213 3.18765 13.4763 3.18751 13.3125 3.18751H10.3125C9.89826 3.18751 9.56248 2.85172 9.56248 2.43751C9.56248 2.02329 9.89826 1.68751 10.3125 1.68751H13.3125C13.3279 1.68751 13.3433 1.68751 13.3587 1.6875C13.8493 1.68746 14.29 1.68742 14.6469 1.73538C15.0364 1.78776 15.436 1.90935 15.7633 2.23668C16.0906 2.56401 16.2122 2.96362 16.2646 3.35314C16.3126 3.70992 16.3126 4.15071 16.3125 4.6413C16.3125 4.65666 16.3125 4.67206 16.3125 4.68751V7.6875C16.3125 8.10173 15.9767 8.4375 15.5625 8.4375C15.1483 8.4375 14.8125 8.10173 14.8125 7.6875V4.68751C14.8125 4.52369 14.8123 4.37869 14.8113 4.24937L8.96781 10.0928C8.67493 10.3857 8.20003 10.3857 7.90716 10.0928C7.61428 9.79995 7.61428 9.32505 7.90716 9.03218L13.7506 3.18871Z" fill="white"/>
</svg>
