<svg width="19" height="19" viewBox="0 0 19 19" fill="none" xmlns="http://www.w3.org/2000/svg">
<path opacity="0.4" d="M9.7094 1.79968C11.3524 1.79968 12.643 1.79967 13.6505 1.93513C14.683 2.07394 15.5022 2.36422 16.1458 3.00787C16.7895 3.65152 17.0797 4.47071 17.2186 5.5032C17.354 6.51076 17.354 7.80126 17.354 9.44428V9.53008C17.354 11.1731 17.354 12.4636 17.2186 13.4712C17.0797 14.5036 16.7895 15.3229 16.1458 15.9665C15.5022 16.6102 14.683 16.9004 13.6505 17.0392C12.643 17.1747 11.3524 17.1747 9.7094 17.1747H9.6236C7.98058 17.1747 6.69008 17.1747 5.68252 17.0392C4.65003 16.9004 3.83084 16.6102 3.18719 15.9665C2.54354 15.3229 2.25326 14.5036 2.11445 13.4712C1.97899 12.4636 1.979 11.1731 1.979 9.53008V9.44428C1.979 7.80127 1.97899 6.51076 2.11445 5.5032C2.25326 4.47071 2.54354 3.65152 3.18719 3.00787C3.83084 2.36422 4.65003 2.07394 5.68252 1.93513C6.69008 1.79967 7.98059 1.79968 9.6236 1.79968H9.7094Z" fill="white"/>
<path d="M12.6754 4.93511C12.9113 4.73293 13.2664 4.76026 13.4686 4.99612L14.5936 6.30862C14.7366 6.47541 14.7694 6.71017 14.6776 6.90974C14.5858 7.10932 14.3862 7.23719 14.1665 7.23719H12.772C12.3694 7.23719 12.1033 7.23769 11.8954 7.25586C11.6979 7.27312 11.5936 7.30381 11.5138 7.34386C11.3361 7.433 11.2036 7.59311 10.7344 8.25306C10.5543 8.50626 10.2031 8.56558 9.94995 8.38551C9.69675 8.20551 9.6375 7.85429 9.8175 7.60111L9.88162 7.51076C10.2533 6.98681 10.5498 6.56887 11.0092 6.33832C11.2611 6.21197 11.5191 6.15946 11.7974 6.13513C11.9942 6.11793 12.2208 6.11362 12.479 6.11255V5.36218C12.4791 5.20375 12.5457 5.04631 12.6754 4.93511Z" fill="white"/>
<path d="M6.43762 7.25585C6.22978 7.23768 5.96357 7.23718 5.56095 7.23718H5.1665C4.85585 7.23718 4.604 6.98535 4.604 6.67468C4.604 6.36403 4.85585 6.11218 5.1665 6.11218H5.56095H5.58424C5.95739 6.11218 6.27299 6.11217 6.53558 6.13513C6.81395 6.15946 7.07194 6.21196 7.32377 6.33832C7.78325 6.56886 8.07972 6.9868 8.45135 7.51075L8.51548 7.60111L10.7344 10.7213C11.2036 11.3813 11.3361 11.5414 11.5138 11.6305C11.5936 11.6706 11.6979 11.7013 11.8954 11.7185C12.1033 11.7367 12.3694 11.7372 12.772 11.7372H14.1665C14.3862 11.7372 14.5858 11.8651 14.6776 12.0646C14.7694 12.2642 14.7366 12.499 14.5936 12.6658L13.4686 13.9783C13.2664 14.2141 12.9113 14.2414 12.6754 14.0393C12.5458 13.9282 12.4792 13.7707 12.479 13.6124V12.8618C12.2208 12.8608 11.9942 12.8565 11.7974 12.8392C11.5191 12.8149 11.2611 12.7624 11.0092 12.6361C10.5498 12.4055 10.2533 11.9876 9.8816 11.4637L9.81748 11.3733L7.59869 8.25305C7.12938 7.5931 6.99694 7.43299 6.81926 7.34385C6.73946 7.30381 6.63514 7.27312 6.43762 7.25585Z" fill="white"/>
<path d="M8.3831 10.5889C8.63623 10.7689 8.69555 11.1201 8.51548 11.3733L8.45135 11.4637C8.07972 11.9876 7.78325 12.4055 7.32377 12.6361C7.07194 12.7624 6.81395 12.8149 6.53558 12.8392C6.27299 12.8622 5.95739 12.8622 5.58423 12.8622H5.1665C4.85585 12.8622 4.604 12.6103 4.604 12.2997C4.604 11.989 4.85585 11.7372 5.1665 11.7372H5.56095C5.96357 11.7372 6.22978 11.7367 6.43762 11.7185C6.63514 11.7013 6.73946 11.6706 6.81926 11.6305C6.99694 11.5414 7.12938 11.3813 7.59869 10.7213C7.77872 10.4681 8.12991 10.4089 8.3831 10.5889Z" fill="white"/>
</svg>
