<svg width="39" height="38" viewBox="0 0 39 38" fill="none" xmlns="http://www.w3.org/2000/svg">
<g filter="url(#filter0_i_106_149431)">
<path d="M0.75 18.75C0.75 8.39466 9.14466 0 19.5 0C29.8553 0 38.25 8.39466 38.25 18.75C38.25 29.1053 29.8553 37.5 19.5 37.5C9.14466 37.5 0.75 29.1053 0.75 18.75Z" fill="black" fill-opacity="0.1"/>
<path d="M19.5 0.524414C29.5656 0.524414 37.7256 8.68443 37.7256 18.75C37.7256 28.8156 29.5656 36.9756 19.5 36.9756C9.43443 36.9756 1.27441 28.8156 1.27441 18.75C1.27441 8.68443 9.43443 0.524414 19.5 0.524414Z" stroke="#5D34D6" stroke-width="1.04936"/>
<path opacity="0.4" d="M19.5 28.8281C13.934 28.8281 9.42188 24.316 9.42188 18.75C9.42188 13.184 13.934 8.67188 19.5 8.67187C25.066 8.67187 29.5781 13.184 29.5781 18.75C29.5781 24.316 25.066 28.8281 19.5 28.8281Z" fill="white"/>
<path fill-rule="evenodd" clip-rule="evenodd" d="M23.9411 16.571C24.2909 16.1893 24.2651 15.5963 23.8835 15.2464C23.5018 14.8966 22.9088 14.9223 22.5589 15.304L18.0643 20.2073L16.4129 18.5558C16.0468 18.1898 15.4532 18.1898 15.0871 18.5558C14.721 18.9219 14.721 19.5156 15.0871 19.8817L17.4308 22.2254C17.6116 22.4063 17.8584 22.5053 18.1141 22.4998C18.3698 22.4942 18.612 22.3845 18.7849 22.196L23.9411 16.571Z" fill="white"/>
</g>
<defs>
<filter id="filter0_i_106_149431" x="0.75" y="0" width="37.5" height="37.5" filterUnits="userSpaceOnUse" color-interpolation-filters="sRGB">
<feFlood flood-opacity="0" result="BackgroundImageFix"/>
<feBlend mode="normal" in="SourceGraphic" in2="BackgroundImageFix" result="shape"/>
<feColorMatrix in="SourceAlpha" type="matrix" values="0 0 0 0 0 0 0 0 0 0 0 0 0 0 0 0 0 0 127 0" result="hardAlpha"/>
<feMorphology radius="5" operator="erode" in="SourceAlpha" result="effect1_innerShadow_106_149431"/>
<feOffset/>
<feGaussianBlur stdDeviation="5"/>
<feComposite in2="hardAlpha" operator="arithmetic" k2="-1" k3="1"/>
<feColorMatrix type="matrix" values="0 0 0 0 0.364706 0 0 0 0 0.203922 0 0 0 0 0.839216 0 0 0 0.5 0"/>
<feBlend mode="normal" in2="shape" result="effect1_innerShadow_106_149431"/>
</filter>
</defs>
</svg>
