<svg width="34" height="34" viewBox="0 0 34 34" fill="none" xmlns="http://www.w3.org/2000/svg">
<g filter="url(#filter0_i_87_95246)">
<path d="M0 16.75C0 7.49923 7.49923 0 16.75 0C26.0008 0 33.5 7.49923 33.5 16.75C33.5 26.0008 26.0008 33.5 16.75 33.5C7.49923 33.5 0 26.0008 0 16.75Z" fill="black" fill-opacity="0.1"/>
<path d="M16.75 0.414062C25.772 0.414062 33.0859 7.728 33.0859 16.75C33.0859 25.772 25.772 33.0859 16.75 33.0859C7.728 33.0859 0.414062 25.772 0.414062 16.75C0.414062 7.728 7.728 0.414062 16.75 0.414062Z" stroke="#5D34D6" stroke-width="0.828442"/>
<path d="M9.1528 15.7867C13.6555 13.8317 16.6573 12.5427 18.1582 11.92C22.4486 10.1418 23.339 9.83295 23.9205 9.82261C24.0484 9.82045 24.3331 9.85195 24.5189 10.0018C24.6733 10.1281 24.7168 10.2988 24.7385 10.4186C24.7579 10.5384 24.7844 10.8114 24.7627 11.0245C24.5311 13.4586 23.5248 19.3653 23.0132 22.0917C22.7985 23.2453 22.3714 23.6321 21.9587 23.6698C21.0611 23.7521 20.3806 23.0791 19.5119 22.5116C18.1534 21.6234 17.3861 21.0706 16.0661 20.2041C14.5411 19.2025 15.5304 18.652 16.3991 17.7524C16.6259 17.517 20.5784 13.9344 20.6532 13.6094C20.6629 13.5688 20.6726 13.4172 20.5809 13.3374C20.4916 13.2573 20.3588 13.2847 20.2623 13.3063C20.1247 13.3371 17.9555 14.7678 13.7471 17.598C13.1318 18.0199 12.5744 18.2255 12.0725 18.2147C11.5223 18.2029 10.4606 17.9039 9.67158 17.6485C8.70636 17.3351 7.93657 17.1694 8.00413 16.6371C8.03791 16.36 8.42165 16.0764 9.1528 15.7867Z" fill="white"/>
</g>
<defs>
<filter id="filter0_i_87_95246" x="0" y="0" width="33.5" height="33.5" filterUnits="userSpaceOnUse" color-interpolation-filters="sRGB">
<feFlood flood-opacity="0" result="BackgroundImageFix"/>
<feBlend mode="normal" in="SourceGraphic" in2="BackgroundImageFix" result="shape"/>
<feColorMatrix in="SourceAlpha" type="matrix" values="0 0 0 0 0 0 0 0 0 0 0 0 0 0 0 0 0 0 127 0" result="hardAlpha"/>
<feMorphology radius="3.94737" operator="erode" in="SourceAlpha" result="effect1_innerShadow_87_95246"/>
<feOffset/>
<feGaussianBlur stdDeviation="3.94737"/>
<feComposite in2="hardAlpha" operator="arithmetic" k2="-1" k3="1"/>
<feColorMatrix type="matrix" values="0 0 0 0 0.364706 0 0 0 0 0.203922 0 0 0 0 0.839216 0 0 0 0.5 0"/>
<feBlend mode="normal" in2="shape" result="effect1_innerShadow_87_95246"/>
</filter>
</defs>
</svg>
