<svg width="34" height="34" viewBox="0 0 34 34" fill="none" xmlns="http://www.w3.org/2000/svg">
<g filter="url(#filter0_i_84_84648)">
<path d="M0.514648 16.75C0.514648 7.50327 8.01061 0 17.2573 0C26.5041 0 34 7.50327 34 16.75C34 25.9967 26.5041 33.5 17.2573 33.5C8.01061 33.5 0.514648 25.9967 0.514648 16.75Z" fill="black" fill-opacity="0.1"/>
<path d="M17.2578 0.414062C26.2753 0.414321 33.5859 7.73196 33.5859 16.75C33.5859 25.768 26.2753 33.0857 17.2578 33.0859C8.24009 33.0859 0.928711 25.7682 0.928711 16.75C0.928711 7.7318 8.24009 0.414062 17.2578 0.414062Z" stroke="#5D34D6" stroke-width="0.828442"/>
<path d="M18.6372 15.6404L24.0315 9.49994H22.7537L18.0678 14.8306L14.328 9.49994H10.0134L15.67 17.5615L10.0134 24H11.2913L16.2365 18.3695L20.1869 24H24.5014M11.7525 10.4436H13.7156L22.7527 23.1027H20.7891" fill="white"/>
</g>
<defs>
<filter id="filter0_i_84_84648" x="0.514648" y="0" width="33.4854" height="33.5" filterUnits="userSpaceOnUse" color-interpolation-filters="sRGB">
<feFlood flood-opacity="0" result="BackgroundImageFix"/>
<feBlend mode="normal" in="SourceGraphic" in2="BackgroundImageFix" result="shape"/>
<feColorMatrix in="SourceAlpha" type="matrix" values="0 0 0 0 0 0 0 0 0 0 0 0 0 0 0 0 0 0 127 0" result="hardAlpha"/>
<feMorphology radius="3.94737" operator="erode" in="SourceAlpha" result="effect1_innerShadow_84_84648"/>
<feOffset/>
<feGaussianBlur stdDeviation="3.94737"/>
<feComposite in2="hardAlpha" operator="arithmetic" k2="-1" k3="1"/>
<feColorMatrix type="matrix" values="0 0 0 0 0.364706 0 0 0 0 0.203922 0 0 0 0 0.839216 0 0 0 0.5 0"/>
<feBlend mode="normal" in2="shape" result="effect1_innerShadow_84_84648"/>
</filter>
</defs>
</svg>
