<svg width="19" height="19" viewBox="0 0 19 19" fill="none" xmlns="http://www.w3.org/2000/svg">
<rect x="0.605225" y="0.5" width="18" height="18" rx="9" fill="#26A07B"/>
<path d="M9.59886 4.63654C10.9289 4.63654 12.2589 4.63654 13.593 4.63654C13.7116 4.63654 13.7444 4.66518 13.7444 4.7859C13.7444 5.36906 13.7444 5.95017 13.7444 6.53128C13.7444 6.64382 13.7116 6.66837 13.6052 6.66632C12.6824 6.66632 11.7637 6.66632 10.8347 6.66632C10.714 6.66632 10.6895 6.69907 10.6915 6.8116C10.6997 7.16218 10.6997 7.51207 10.6915 7.86128C10.6915 7.97178 10.714 8.00656 10.8327 8.0127C11.8044 8.04474 12.7703 8.175 13.7157 8.40147C14.0264 8.47363 14.3273 8.58286 14.6119 8.72681C14.7265 8.78344 14.8304 8.85961 14.9189 8.95189C14.9525 8.98202 14.9795 9.01892 14.9979 9.06017C15.0164 9.10142 15.0259 9.1461 15.0259 9.19129C15.0259 9.23647 15.0164 9.28115 14.9979 9.32241C14.9795 9.36366 14.9525 9.40055 14.9189 9.43068C14.7457 9.59914 14.5355 9.72461 14.305 9.79695C13.744 9.99621 13.1628 10.1334 12.5719 10.2062C11.9877 10.2956 11.3988 10.3502 10.8081 10.3699C10.6976 10.3699 10.6976 10.4272 10.6976 10.509C10.6976 11.8349 10.6976 13.169 10.6976 14.4867C10.6976 14.6218 10.6629 14.6504 10.5319 14.6504C9.8935 14.6504 9.25306 14.6504 8.61466 14.6504C8.50621 14.6504 8.48575 14.6197 8.48575 14.5195C8.48575 13.2058 8.48575 11.8943 8.48575 10.5806C8.48575 10.376 8.48575 10.376 8.28113 10.376C7.32552 10.3338 6.37635 10.1981 5.4472 9.97087C5.09624 9.89486 4.75979 9.7629 4.45072 9.58005C4.04149 9.32428 4.04149 9.03987 4.45072 8.78819C4.86322 8.55537 5.31339 8.39678 5.78073 8.31962C6.63309 8.14142 7.49894 8.03533 8.36912 8.00247C8.46938 8.00247 8.49189 7.96973 8.48984 7.87561C8.48984 7.51958 8.48984 7.16559 8.48984 6.8116C8.48984 6.69702 8.46733 6.65814 8.34252 6.66019C7.42175 6.66019 6.50097 6.66019 5.58225 6.66019C5.45743 6.66019 5.43493 6.62131 5.43493 6.50673C5.43493 5.92971 5.43493 5.35269 5.43493 4.77363C5.43493 4.64676 5.47585 4.62836 5.58839 4.62836C6.92657 4.63859 8.26272 4.63654 9.59886 4.63654ZM9.67047 10.0302C10.3686 10.0376 11.0667 10.0075 11.7616 9.94018C12.3833 9.88947 12.9994 9.78542 13.6032 9.62917C13.8464 9.57364 14.0791 9.47969 14.2927 9.35088C14.5649 9.17287 14.5608 8.98462 14.2927 8.80661C14.16 8.71819 14.0153 8.64928 13.8631 8.60199C12.8538 8.32411 11.8138 8.17357 10.7672 8.15388C10.671 8.15388 10.6874 8.20709 10.6874 8.26234C10.6874 8.67157 10.6874 9.09307 10.6874 9.50844C10.6874 9.60256 10.6649 9.64144 10.5667 9.64553C9.90578 9.67008 9.24487 9.67417 8.58396 9.64553C8.49802 9.64553 8.47756 9.61074 8.47756 9.5289C8.47756 9.10739 8.47756 8.68793 8.47756 8.26847C8.47756 8.17434 8.45096 8.15389 8.35889 8.15593C7.90464 8.17639 7.45039 8.21527 6.99819 8.26847C6.42351 8.32584 5.85597 8.44031 5.30397 8.61017C5.14076 8.6557 4.985 8.72463 4.84154 8.81479C4.59395 8.98462 4.596 9.16877 4.84154 9.3386C4.93726 9.40129 5.03948 9.45343 5.14642 9.49411C5.50764 9.62704 5.8812 9.7237 6.26157 9.78263C7.38833 9.96571 8.52909 10.0486 9.67047 10.0302Z" fill="white"/>
</svg>
