<svg width="43" height="43" viewBox="0 0 43 43" fill="none" xmlns="http://www.w3.org/2000/svg">
<g filter="url(#filter0_i_1_2010)">
<rect width="42.5" height="42.5" rx="21.25" fill="#5E35D6"/>
<path fill-rule="evenodd" clip-rule="evenodd" d="M13.75 15.6244V14.6875C13.75 14.1697 13.3303 13.75 12.8125 13.75C12.2947 13.75 11.875 14.1697 11.875 14.6875V18.4375C11.875 18.9553 12.2947 19.375 12.8125 19.375H16.5625C17.0803 19.375 17.5 18.9553 17.5 18.4375C17.5 17.9197 17.0803 17.5 16.5625 17.5H14.7531C16.0506 15.2571 18.4751 13.75 21.25 13.75C25.3921 13.75 28.75 17.1079 28.75 21.25C28.75 25.3922 25.3921 28.75 21.25 28.75C17.9859 28.75 15.2065 26.6643 14.1765 23.7501C14.0039 23.2619 13.4683 23.006 12.9802 23.1786C12.492 23.3511 12.2361 23.8867 12.4087 24.3749C13.6952 28.0149 17.1666 30.625 21.25 30.625C26.4276 30.625 30.625 26.4276 30.625 21.25C30.625 16.0723 26.4276 11.875 21.25 11.875C18.1822 11.875 15.4598 13.3484 13.75 15.6244ZM21.25 16.5625C21.7678 16.5625 22.1875 16.9822 22.1875 17.5V20.8617L24.7254 23.3996C25.0915 23.7657 25.0915 24.3593 24.7254 24.7254C24.3593 25.0915 23.7657 25.0915 23.3996 24.7254L20.5871 21.9129C20.4113 21.7371 20.3125 21.4986 20.3125 21.25V17.5C20.3125 16.9822 20.7322 16.5625 21.25 16.5625Z" fill="white"/>
</g>
<defs>
<filter id="filter0_i_1_2010" x="0" y="-6.25" width="42.5" height="48.75" filterUnits="userSpaceOnUse" color-interpolation-filters="sRGB">
<feFlood flood-opacity="0" result="BackgroundImageFix"/>
<feBlend mode="normal" in="SourceGraphic" in2="BackgroundImageFix" result="shape"/>
<feColorMatrix in="SourceAlpha" type="matrix" values="0 0 0 0 0 0 0 0 0 0 0 0 0 0 0 0 0 0 127 0" result="hardAlpha"/>
<feMorphology radius="1.6875" operator="erode" in="SourceAlpha" result="effect1_innerShadow_1_2010"/>
<feOffset dy="-6.25"/>
<feGaussianBlur stdDeviation="8.4375"/>
<feComposite in2="hardAlpha" operator="arithmetic" k2="-1" k3="1"/>
<feColorMatrix type="matrix" values="0 0 0 0 0.878431 0 0 0 0 0.878431 0 0 0 0 0.878431 0 0 0 1 0"/>
<feBlend mode="normal" in2="shape" result="effect1_innerShadow_1_2010"/>
</filter>
</defs>
</svg>
