<svg width="43" height="43" viewBox="0 0 43 43" fill="none" xmlns="http://www.w3.org/2000/svg">
<g filter="url(#filter0_i_1_2016)">
<rect width="42.5" height="42.5" rx="21.25" fill="#5E35D6"/>
<path fill-rule="evenodd" clip-rule="evenodd" d="M18.4375 10.9375C18.9553 10.9375 19.375 11.3572 19.375 11.875V12.8125C19.375 13.3303 18.9553 13.75 18.4375 13.75C17.9197 13.75 17.5 13.3303 17.5 12.8125V11.875C17.5 11.3572 17.9197 10.9375 18.4375 10.9375ZM12.6183 12.6183C12.9845 12.2522 13.578 12.2522 13.9442 12.6183L14.8817 13.5558C15.2478 13.922 15.2478 14.5155 14.8817 14.8817C14.5155 15.2478 13.922 15.2478 13.5558 14.8817L12.6183 13.9442C12.2522 13.578 12.2522 12.9845 12.6183 12.6183ZM20.9421 13.6696C22.4066 12.2051 24.7809 12.2051 26.2454 13.6696L28.8304 16.2546C30.2949 17.7191 30.2949 20.0934 28.8304 21.5579L27.5379 22.8504C27.1718 23.2165 26.5782 23.2165 26.2121 22.8504C25.846 22.4843 25.846 21.8907 26.2121 21.5246L27.5046 20.2321C28.2368 19.4999 28.2368 18.3127 27.5046 17.5804L24.9196 14.9954C24.1874 14.2632 23.0001 14.2632 22.2679 14.9954L20.9754 16.2879C20.6093 16.654 20.0157 16.654 19.6496 16.2879C19.2835 15.9218 19.2835 15.3282 19.6496 14.9621L20.9421 13.6696ZM10.9375 18.4375C10.9375 17.9197 11.3572 17.5 11.875 17.5H12.8125C13.3303 17.5 13.75 17.9197 13.75 18.4375C13.75 18.9553 13.3303 19.375 12.8125 19.375H11.875C11.3572 19.375 10.9375 18.9553 10.9375 18.4375ZM16.2879 19.6496C16.654 20.0157 16.654 20.6093 16.2879 20.9754L14.9954 22.2679C14.2632 23.0001 14.2632 24.1874 14.9954 24.9196L17.5804 27.5046C18.3127 28.2368 19.4999 28.2368 20.2321 27.5046L21.5246 26.2121C21.8907 25.846 22.4843 25.846 22.8504 26.2121C23.2165 26.5782 23.2165 27.1718 22.8504 27.5379L21.5579 28.8304C20.0934 30.2949 17.7191 30.2949 16.2546 28.8304L13.6696 26.2454C12.2051 24.7809 12.2051 22.4066 13.6696 20.9421L14.9621 19.6496C15.3282 19.2835 15.9218 19.2835 16.2879 19.6496ZM28.75 24.0625C28.75 23.5447 29.1697 23.125 29.6875 23.125H30.625C31.1428 23.125 31.5625 23.5447 31.5625 24.0625C31.5625 24.5803 31.1428 25 30.625 25H29.6875C29.1697 25 28.75 24.5803 28.75 24.0625ZM27.6183 27.6183C27.9844 27.2523 28.5781 27.2523 28.9442 27.6183L29.8817 28.5558C30.2477 28.9219 30.2477 29.5156 29.8817 29.8817C29.5156 30.2477 28.9219 30.2477 28.5558 29.8817L27.6183 28.9442C27.2523 28.5781 27.2523 27.9844 27.6183 27.6183ZM24.0625 28.75C24.5803 28.75 25 29.1697 25 29.6875V30.625C25 31.1428 24.5803 31.5625 24.0625 31.5625C23.5447 31.5625 23.125 31.1428 23.125 30.625V29.6875C23.125 29.1697 23.5447 28.75 24.0625 28.75Z" fill="white"/>
</g>
<defs>
<filter id="filter0_i_1_2016" x="0" y="-6.25" width="42.5" height="48.75" filterUnits="userSpaceOnUse" color-interpolation-filters="sRGB">
<feFlood flood-opacity="0" result="BackgroundImageFix"/>
<feBlend mode="normal" in="SourceGraphic" in2="BackgroundImageFix" result="shape"/>
<feColorMatrix in="SourceAlpha" type="matrix" values="0 0 0 0 0 0 0 0 0 0 0 0 0 0 0 0 0 0 127 0" result="hardAlpha"/>
<feMorphology radius="1.6875" operator="erode" in="SourceAlpha" result="effect1_innerShadow_1_2016"/>
<feOffset dy="-6.25"/>
<feGaussianBlur stdDeviation="8.4375"/>
<feComposite in2="hardAlpha" operator="arithmetic" k2="-1" k3="1"/>
<feColorMatrix type="matrix" values="0 0 0 0 0.878431 0 0 0 0 0.878431 0 0 0 0 0.878431 0 0 0 1 0"/>
<feBlend mode="normal" in2="shape" result="effect1_innerShadow_1_2016"/>
</filter>
</defs>
</svg>
