<svg width="24" height="24" viewBox="0 0 24 24" fill="none" xmlns="http://www.w3.org/2000/svg">
<path fill-rule="evenodd" clip-rule="evenodd" d="M20 5.5V7.5H19.9839C19.9017 8.13364 19.5157 8.63201 19.0951 8.98717C18.616 9.39171 17.982 9.71098 17.2861 9.95951C15.8856 10.4597 14.0166 10.75 12 10.75C9.98341 10.75 8.1144 10.4597 6.71392 9.95951C6.01803 9.71098 5.38405 9.39171 4.90494 8.98717C4.48432 8.63201 4.09828 8.13364 4.01607 7.5H4V5.5C4 4.74631 4.43048 4.16346 4.90494 3.76283C5.38405 3.35829 6.01803 3.03902 6.71392 2.79049C8.1144 2.29032 9.98341 2 12 2C14.0166 2 15.8856 2.29032 17.2861 2.79049C17.982 3.03902 18.616 3.35829 19.0951 3.76283C19.5695 4.16346 20 4.74631 20 5.5ZM6.19525 5.29094C6.07042 5.39634 6.02321 5.46681 6.00633 5.5C6.02321 5.53319 6.07042 5.60366 6.19525 5.70906C6.42458 5.9027 6.81573 6.12215 7.38659 6.32603C8.5196 6.73067 10.1506 7 12 7C13.8494 7 15.4804 6.73067 16.6134 6.32603C17.1843 6.12215 17.5754 5.9027 17.8048 5.70906C17.9296 5.60366 17.9768 5.53319 17.9937 5.5C17.9768 5.46681 17.9296 5.39634 17.8048 5.29094C17.5754 5.0973 17.1843 4.87785 16.6134 4.67397C15.4804 4.26933 13.8494 4 12 4C10.1506 4 8.5196 4.26933 7.38659 4.67397C6.81573 4.87785 6.42458 5.0973 6.19525 5.29094Z" fill="#FF6F1D"/>
<path d="M20 11.0637C19.3587 11.52 18.6396 11.8497 17.9588 12.0929C16.2908 12.6886 14.1838 12.9999 12 12.9999C9.81624 12.9999 7.70922 12.6886 6.04124 12.0929C5.3604 11.8497 4.6413 11.52 4 11.0637V12.9999C4 13.7536 4.43048 14.3364 4.90494 14.7371C5.38405 15.1416 6.01803 15.4609 6.71392 15.7094C8.1144 16.2096 9.98341 16.4999 12 16.4999C14.0166 16.4999 15.8856 16.2096 17.2861 15.7094C17.982 15.4609 18.616 15.1416 19.0951 14.7371C19.5695 14.3364 20 13.7536 20 12.9999V11.0637Z" fill="#FF6F1D"/>
<path d="M4 18.4999V16.5637C4.6413 17.02 5.3604 17.3497 6.04124 17.5929C7.70922 18.1886 9.81624 18.4999 12 18.4999C14.1838 18.4999 16.2908 18.1886 17.9588 17.5929C18.6396 17.3497 19.3587 17.02 20 16.5637V18.4999C20 19.2536 19.5695 19.8364 19.0951 20.2371C18.616 20.6416 17.982 20.9609 17.2861 21.2094C15.8856 21.7096 14.0166 21.9999 12 21.9999C9.98341 21.9999 8.1144 21.7096 6.71392 21.2094C6.01803 20.9609 5.38405 20.6416 4.90494 20.2371C4.43048 19.8364 4 19.2536 4 18.4999Z" fill="#FF6F1D"/>
</svg>
