<svg width="24" height="24" viewBox="0 0 24 24" fill="none" xmlns="http://www.w3.org/2000/svg">
<path fill-rule="evenodd" clip-rule="evenodd" d="M6.46484 9.12169C8.41747 7.16907 11.5833 7.16907 13.5359 9.12169L13.8791 9.46484C14.6954 10.2811 15.1713 11.3121 15.3046 12.3761C15.3733 12.9241 14.9847 13.424 14.4367 13.4926C13.8887 13.5613 13.3888 13.1727 13.3201 12.6247C13.2401 11.9862 12.9558 11.37 12.4649 10.8791L12.1217 10.5359C10.9502 9.36433 9.05062 9.36433 7.87906 10.5359L4.53591 13.8791C3.36434 15.0506 3.36434 16.9501 4.53591 18.1217L4.87906 18.4648C6.05062 19.6364 7.95013 19.6364 9.1217 18.4648L9.29323 18.2933C9.68374 17.9027 10.3169 17.9027 10.7075 18.2932C11.098 18.6837 11.098 19.3169 10.7075 19.7074L10.536 19.879C8.58331 21.8316 5.41746 21.8317 3.46484 19.879L3.1217 19.5359C1.16908 17.5833 1.16907 14.4175 3.1217 12.4648L6.46484 9.12169Z" fill="#FF6F1D"/>
<path fill-rule="evenodd" clip-rule="evenodd" d="M13.464 5.12169C15.4166 3.16907 18.5825 3.16907 20.5351 5.12169L20.8782 5.46484C22.8309 7.41746 22.8309 10.5833 20.8782 12.5359L17.5351 15.8791C15.5825 17.8317 12.4166 17.8317 10.464 15.879L10.1209 15.5359C9.30461 14.7196 8.82865 13.6887 8.69536 12.6247C8.62671 12.0767 9.01531 11.5768 9.56331 11.5081C10.1113 11.4395 10.6112 11.8281 10.6798 12.3761C10.7598 13.0146 11.0441 13.6307 11.5351 14.1217L11.8782 14.4648C13.0498 15.6364 14.9493 15.6364 16.1209 14.4648L19.464 11.1217C20.6356 9.95012 20.6356 8.05062 19.464 6.87905L19.1209 6.53591C17.9493 5.36436 16.0499 5.36433 14.8783 6.53581C14.8783 6.53584 14.8784 6.53578 14.8783 6.53581L14.7068 6.70738C14.3163 7.09796 13.6832 7.09804 13.2926 6.70757C12.902 6.31709 12.9019 5.68393 13.2924 5.29335L13.464 5.12169Z" fill="#FF6F1D"/>
</svg>
