<svg width="19" height="18" viewBox="0 0 19 18" fill="none" xmlns="http://www.w3.org/2000/svg">
<g clip-path="url(#clip0_1_174)">
<mask id="mask0_1_174" style="mask-type:luminance" maskUnits="userSpaceOnUse" x="0" y="0" width="19" height="18">
<path d="M18.25 0H0.25V18H18.25V0Z" fill="white"/>
</mask>
<g mask="url(#mask0_1_174)">
<path d="M2.96875 13.1023C4.69337 15.7437 7.97805 17.1051 11.1908 16.2442C14.4035 15.3834 16.5674 12.562 16.7403 9.41223C16.4778 9.55541 16.2042 9.69281 15.9266 9.82406C14.3995 10.5461 12.3158 11.2839 10.0261 11.8975C7.73627 12.5111 5.56287 12.9138 3.87933 13.0521C3.5733 13.0773 3.26769 13.095 2.96875 13.1023Z" fill="#5D34D6"/>
<path d="M7.30886 1.75531C10.5418 0.889049 13.8459 2.27284 15.5618 4.94544C15.9606 4.95082 16.3228 4.9828 16.6262 5.05123C16.8315 5.09754 17.0513 5.16941 17.2451 5.29068C17.4432 5.41465 17.6627 5.6231 17.7492 5.94594C17.8538 6.33622 17.7086 6.67384 17.5674 6.88806C17.424 7.10572 17.2225 7.29634 17.0141 7.46072C16.5923 7.79337 15.992 8.13417 15.2858 8.46799C13.8623 9.14112 11.8685 9.85107 9.63827 10.4487C7.40793 11.0463 5.32634 11.4282 3.75694 11.5572C2.97845 11.6211 2.28823 11.6262 1.75658 11.549C1.49388 11.5108 1.22408 11.4465 0.991066 11.3297C0.761726 11.2147 0.467129 10.995 0.362555 10.6047C0.27605 10.2819 0.361888 9.99162 0.471473 9.78514C0.578673 9.58324 0.733082 9.41112 0.887787 9.26832C1.11631 9.05734 1.41399 8.84854 1.75661 8.64454C1.90636 5.47203 4.0759 2.62159 7.30886 1.75531Z" fill="#5D34D6"/>
</g>
</g>
<defs>
<clipPath id="clip0_1_174">
<rect width="18" height="18" fill="white" transform="translate(0.25)"/>
</clipPath>
</defs>
</svg>
