<svg width="135" height="31" viewBox="0 0 135 31" fill="none" xmlns="http://www.w3.org/2000/svg">
<path d="M16.814 2.65649C17.4464 2.65649 17.9593 3.16936 17.9593 3.8018V6.82759C17.9521 6.77584 17.9593 6.8813 17.9593 6.82759C17.8624 7.28069 17.4623 7.79989 16.5955 7.79999V7.81071H13.8083C13.2549 7.81072 12.8064 8.25923 12.8064 8.81261V11.8444C12.7645 12.3183 12.4608 12.9636 11.4467 12.9636H8.65544C8.10216 12.9636 7.65305 13.4122 7.65288 13.9655V17.1153C7.65305 17.6685 8.10216 18.1171 8.65544 18.1171H11.8039L11.9084 18.1252C12.4174 18.2075 12.717 18.8776 12.8064 19.1907V22.2681C12.8064 22.8215 13.2549 23.27 13.8083 23.27H16.9574C17.5108 23.27 17.9593 22.8215 17.9593 22.2681V19.119C17.9593 19.0819 17.9572 19.0452 17.9533 19.0091C18.1201 18.6536 18.5035 18.1594 18.9853 18.1594V18.1165H22.1103C22.6636 18.1165 23.1121 17.6679 23.1122 17.1146V13.9655C23.1122 13.4121 22.6637 12.9629 22.1103 12.9629H18.9612C18.4078 12.9629 17.9593 13.4121 17.9593 13.9655V17.1146C17.9593 17.1396 17.9609 17.1644 17.9627 17.189C17.8869 17.5464 17.627 17.963 17.0465 18.1212C17.0172 18.1186 16.9874 18.1171 16.9574 18.1171H13.8083C13.7619 18.1171 13.7163 18.1204 13.6716 18.1265C13.0479 17.9544 12.8406 17.4556 12.8064 17.0697V13.9655L12.8533 13.8261C12.9793 13.4997 13.263 13.0358 13.7038 12.971L13.8083 12.9636H16.9574C17.5108 12.9636 17.9593 12.5151 17.9593 11.9617V8.81261C17.9593 8.77891 17.9579 8.7456 17.9546 8.71275C18.0735 8.37253 18.3589 7.86197 18.8118 7.80602C18.8389 7.80823 18.8665 7.81071 18.8942 7.81071H21.9937C22.614 7.82468 23.1128 8.33106 23.1129 8.95468V11.8176C23.1129 12.45 23.6252 12.9628 24.2575 12.9629H27.1204C27.7529 12.9629 28.2657 13.4758 28.2657 14.1082V16.9705C28.2657 17.6029 27.7529 18.1158 27.1204 18.1158H24.2575C23.6252 18.1159 23.1129 18.6287 23.1129 19.2611V22.124C23.1128 22.7564 22.5999 23.2693 21.9676 23.2694H19.1046C18.4722 23.2694 17.9594 23.7817 17.9593 24.414V27.2769C17.9593 27.9094 17.4464 28.4222 16.814 28.4222H13.9517C13.3193 28.4222 12.8064 27.9094 12.8064 27.2769V24.414C12.8063 23.7817 12.2935 23.2694 11.6611 23.2694H8.79819C8.16583 23.2693 7.65294 22.7564 7.65288 22.124V19.2611C7.65288 18.6287 7.14058 18.1159 6.50824 18.1158H3.64531C3.01286 18.1158 2.5 17.6029 2.5 16.9705V14.1082C2.5 13.4758 3.01286 12.9629 3.64531 12.9629H6.50824C7.14058 12.9628 7.65288 12.45 7.65288 11.8176V8.95468C7.65294 8.32232 8.16582 7.80943 8.79819 7.80937H11.6611C12.2935 7.80937 12.8063 7.29707 12.8064 6.66474V3.8018C12.8064 3.16936 13.3193 2.65649 13.9517 2.65649H16.814Z" fill="white"/>
<path d="M40.2199 24.0433C36.3741 24.0433 32.5283 21.1121 32.5283 15.6482C32.5283 10.161 36.5383 7.25317 40.2433 7.25317H41.58C45.3085 7.25317 48.0287 9.99681 48.3804 13.4439H45.2382C45.0037 11.6618 43.5029 10.0437 41.6269 10.0437H40.2668C38.0859 10.0437 35.8348 12.0838 35.8348 15.6482C35.8348 19.1892 37.9687 21.2528 40.1964 21.2528H41.5565C43.5029 21.2528 44.9802 19.7285 45.2382 17.8525H48.3804C48.0756 21.4638 44.8161 24.0433 41.5331 24.0433H40.2199Z" fill="white"/>
<path d="M55.0223 24.0433C51.7627 24.0433 49.3005 21.4638 49.3005 17.9463C49.3005 14.4054 51.7627 11.8494 54.9988 11.8494H56.0072C59.2667 11.8494 61.7055 14.4054 61.7055 17.9463C61.7055 21.4873 59.2667 24.0433 56.0306 24.0433H55.0223ZM55.9368 21.4404C57.4611 21.4404 58.657 19.9161 58.657 17.9463C58.657 15.9765 57.4611 14.4523 55.9368 14.4523H55.0926C53.5449 14.4523 52.349 15.9296 52.349 17.9463C52.349 19.963 53.5449 21.4404 55.0926 21.4404H55.9368Z" fill="white"/>
<path d="M66.9333 28.6395C63.838 28.6395 62.1027 27.2794 62.1027 25.3096C62.1027 24.4654 62.4779 23.715 63.0641 23.1522C63.3455 22.8708 63.3455 22.6832 63.0641 22.3784C62.7593 22.0266 62.5248 21.5811 62.5248 21.0417C62.5248 20.1975 63.1579 19.4471 64.1663 19.0954C64.518 18.9547 64.5649 18.7671 64.2835 18.4857C63.5566 17.8056 63.2048 16.9145 63.2048 15.9531C63.2048 13.4908 65.2684 11.8494 67.8244 11.8494H68.6921C69.7239 11.8494 70.5212 12.037 71.8813 12.037H74.6953V14.1005H73.4524C72.96 14.1005 72.7958 14.3585 73.0069 14.7806C73.2414 15.2027 73.3586 15.6482 73.3586 16.0938C73.3586 18.3684 71.2247 20.0803 68.739 20.0803H66.3471C65.8312 20.0803 65.4325 20.3382 65.4325 20.7838C65.4325 21.2059 65.8077 21.4873 66.4409 21.4873H70.5212C73.0538 21.4873 74.7187 22.8942 74.7187 24.9109C74.7187 27.1621 72.6082 28.6395 69.8177 28.6395H66.9333ZM70.0991 26.271C71.1309 26.271 71.764 25.7786 71.764 24.9813C71.764 24.2778 71.1778 23.7853 70.146 23.7853H66.8161C65.3622 23.7853 65.0573 24.4888 65.0573 25.0282C65.0573 25.7317 65.6201 26.271 66.8161 26.271H70.0991ZM68.6686 17.7353C69.7708 17.7353 70.4508 16.8911 70.4508 15.9531C70.4508 15.0385 69.7708 14.1943 68.6686 14.1943H67.8713C67.0271 14.1943 66.0891 14.8509 66.0891 15.9531C66.0891 17.0787 67.0037 17.7353 67.8479 17.7353H68.6686Z" fill="white"/>
<path d="M82.9362 11.8494C86.0082 11.8494 88.4235 14.4757 88.4235 17.9463C88.4235 21.4169 86.0082 24.0433 82.9362 24.0433H82.3031C81.4823 24.0433 80.5678 23.6915 79.8878 23.1991C79.3484 22.8942 78.9967 23.0584 78.9967 23.5508V28.6395H75.9716V12.037H78.9967V12.459C78.9967 12.8342 79.3719 12.9984 79.8878 12.6701C80.6147 12.1542 81.5292 11.8494 82.3265 11.8494H82.9362ZM81.6465 14.4523C80.0754 14.4523 78.7856 15.9062 78.7856 17.9463C78.7856 19.9865 80.0754 21.4404 81.6465 21.4404H82.5141C84.0149 21.4404 85.3516 19.9865 85.3516 17.9463C85.3516 15.9062 84.0149 14.4523 82.5141 14.4523H81.6465Z" fill="white"/>
<path d="M89.9527 23.8557V12.037H92.9777V23.8557H89.9527ZM89.8589 7.44077H93.095V10.161H89.8589V7.44077Z" fill="white"/>
<path d="M98.3293 18.6029C97.8368 18.6029 97.6023 18.9078 97.743 19.3299C98.0244 20.5493 98.9155 21.5342 100.205 21.5342H101.167C102.316 21.5342 103.254 20.7838 103.418 19.8692H106.302C106.044 22.3315 103.817 24.0433 101.12 24.0433H100.182C96.9457 24.0433 94.5304 21.4873 94.5304 17.9229C94.5304 14.0771 97.4382 11.8494 100.135 11.8494H101.12C104.168 11.8494 106.419 14.3819 106.419 17.5711C106.419 18.1105 106.373 18.4857 106.373 18.6029H98.3293ZM98.0244 15.6951C97.7665 16.1172 97.9775 16.469 98.47 16.469H102.714C103.183 16.469 103.441 16.1407 103.254 15.7186C102.925 14.8275 102.081 14.1943 101.12 14.1943H100.182C99.3142 14.1943 98.47 14.6868 98.0244 15.6951Z" fill="white"/>
<path d="M113.112 24.0433C109.547 24.0433 107.366 21.3231 107.366 17.9463C107.366 14.5461 109.594 11.8494 113.159 11.8494H114.003C116.84 11.8494 119.044 13.7722 119.232 16.7035H116.254C116.113 15.4606 115.269 14.4523 113.979 14.4523H113.159C111.376 14.4523 110.415 16.0703 110.415 17.9463C110.415 19.8458 111.376 21.4404 113.112 21.4404H113.932C115.222 21.4404 116.019 20.4789 116.277 19.2361H119.279C118.927 21.9563 116.934 24.0433 113.932 24.0433H113.112Z" fill="white"/>
<path d="M123.91 18.6029C123.417 18.6029 123.183 18.9078 123.324 19.3299C123.605 20.5493 124.496 21.5342 125.786 21.5342H126.747C127.896 21.5342 128.834 20.7838 128.998 19.8692H131.883C131.625 22.3315 129.397 24.0433 126.7 24.0433H125.762C122.526 24.0433 120.111 21.4873 120.111 17.9229C120.111 14.0771 123.019 11.8494 125.715 11.8494H126.7C129.749 11.8494 132 14.3819 132 17.5711C132 18.1105 131.953 18.4857 131.953 18.6029H123.91ZM123.605 15.6951C123.347 16.1172 123.558 16.469 124.05 16.469H128.295C128.764 16.469 129.022 16.1407 128.834 15.7186C128.506 14.8275 127.662 14.1943 126.7 14.1943H125.762C124.895 14.1943 124.05 14.6868 123.605 15.6951Z" fill="white"/>
</svg>
