<svg width="87" height="87" viewBox="0 0 87 87" fill="none" xmlns="http://www.w3.org/2000/svg">
<path d="M18.75 0.75H67.5C77.6482 0.75 85.875 8.97677 85.875 19.125V67.875C85.875 78.0232 77.6482 86.25 67.5 86.25H18.75C8.60177 86.25 0.375 78.0232 0.375 67.875V19.125C0.375 8.97677 8.60177 0.75 18.75 0.75Z" fill="#050819" stroke="url(#paint0_linear_1_1983)" stroke-width="0.75"/>
<g filter="url(#filter0_i_1_1983)">
<path d="M46.9092 13.1108C48.4192 13.1108 49.6436 14.3353 49.6436 15.8452V23.0691C49.6265 22.9456 49.6436 23.1973 49.6436 23.0691C49.4123 24.1508 48.4569 25.3904 46.3876 25.3907V25.4163H39.7333C38.4122 25.4163 37.3414 26.4871 37.3414 27.8082V35.0465C37.2412 36.1779 36.5161 37.7185 34.095 37.7185H27.4311C26.1102 37.7185 25.038 38.7896 25.0376 40.1104V47.6303C25.038 48.9512 26.1102 50.0223 27.4311 50.0223H34.9478L35.1974 50.0415C36.4126 50.238 37.1278 51.8378 37.3414 52.5854V59.9325C37.3414 61.2537 38.4122 62.3245 39.7333 62.3245H47.2516C48.5728 62.3245 49.6436 61.2537 49.6436 59.9325V52.4143C49.6436 52.3256 49.6386 52.238 49.6292 52.1519C50.0274 51.3031 50.9429 50.1232 52.0932 50.1231V50.0207H59.5539C60.8748 50.0207 61.9455 48.9496 61.9458 47.6287V40.1104C61.9458 38.7892 60.875 37.7169 59.5539 37.7169H52.0356C50.7144 37.7169 49.6436 38.7892 49.6436 40.1104V47.6287C49.6436 47.6885 49.6473 47.7476 49.6516 47.8063C49.4706 48.6596 48.8501 49.6544 47.4644 50.0319C47.3943 50.0257 47.3233 50.0223 47.2516 50.0223H39.7333C39.6226 50.0223 39.5137 50.0301 39.407 50.0447C37.9178 49.6338 37.423 48.4428 37.3414 47.5215V40.1104L37.4534 39.7776C37.7542 38.9983 38.4314 37.8908 39.4838 37.7361L39.7333 37.7185H47.2516C48.5728 37.7185 49.6436 36.6477 49.6436 35.3265V27.8082C49.6436 27.7278 49.6402 27.6482 49.6324 27.5698C49.9161 26.7576 50.5977 25.5386 51.6788 25.4051C51.7436 25.4103 51.8094 25.4163 51.8756 25.4163H59.2755C60.7563 25.4496 61.9473 26.6586 61.9474 28.1474V34.9825C61.9474 36.4923 63.1705 37.7166 64.6802 37.7169H71.5153C73.0252 37.7169 74.2496 38.9413 74.2496 40.4512V47.2847C74.2496 48.7947 73.0252 50.0191 71.5153 50.0191H64.6802C63.1705 50.0194 61.9474 51.2437 61.9474 52.7534V59.5885C61.9473 61.0983 60.7228 62.3228 59.2131 62.3229H52.378C50.8682 62.3229 49.6439 63.546 49.6436 65.0557V71.8908C49.6436 73.4007 48.4192 74.6251 46.9092 74.6251H40.0757C38.5658 74.6251 37.3414 73.4007 37.3414 71.8908V65.0557C37.3411 63.546 36.1168 62.3229 34.607 62.3229H27.7719C26.2622 62.3228 25.0377 61.0983 25.0376 59.5885V52.7534C25.0376 51.2437 23.8145 50.0194 22.3048 50.0191H15.4697C13.9598 50.0191 12.7354 48.7947 12.7354 47.2847V40.4512C12.7354 38.9413 13.9598 37.7169 15.4697 37.7169H22.3048C23.8145 37.7166 25.0376 36.4923 25.0376 34.9825V28.1474C25.0377 26.6377 26.2622 25.4132 27.7719 25.4131H34.607C36.1168 25.4131 37.3411 24.19 37.3414 22.6803V15.8452C37.3414 14.3353 38.5658 13.1108 40.0757 13.1108H46.9092Z" fill="url(#paint1_linear_1_1983)"/>
</g>
<defs>
<filter id="filter0_i_1_1983" x="12.7354" y="11.5706" width="61.5143" height="63.0544" filterUnits="userSpaceOnUse" color-interpolation-filters="sRGB">
<feFlood flood-opacity="0" result="BackgroundImageFix"/>
<feBlend mode="normal" in="SourceGraphic" in2="BackgroundImageFix" result="shape"/>
<feColorMatrix in="SourceAlpha" type="matrix" values="0 0 0 0 0 0 0 0 0 0 0 0 0 0 0 0 0 0 127 0" result="hardAlpha"/>
<feOffset dy="-1.54029"/>
<feGaussianBlur stdDeviation="0.770144"/>
<feComposite in2="hardAlpha" operator="arithmetic" k2="-1" k3="1"/>
<feColorMatrix type="matrix" values="0 0 0 0 1 0 0 0 0 1 0 0 0 0 1 0 0 0 0.1 0"/>
<feBlend mode="normal" in2="shape" result="effect1_innerShadow_1_1983"/>
</filter>
<linearGradient id="paint0_linear_1_1983" x1="43.125" y1="-31.1997" x2="43.125" y2="86.625" gradientUnits="userSpaceOnUse">
<stop stop-color="white"/>
<stop offset="1" stop-color="#5D34D6"/>
</linearGradient>
<linearGradient id="paint1_linear_1_1983" x1="43.4925" y1="-9.40853" x2="43.4925" y2="74.6251" gradientUnits="userSpaceOnUse">
<stop stop-color="white"/>
<stop offset="1" stop-color="#5D34D6"/>
</linearGradient>
</defs>
</svg>
